<svg width="70" height="70" viewBox="0 0 70 70" fill="none" xmlns="http://www.w3.org/2000/svg">
<path d="M35 70C25.7206 69.9895 16.8243 66.2987 10.2628 59.7372C3.70133 53.1757 0.0104615 44.2793 0 34.9999C0.0104615 25.7206 3.70133 16.8243 10.2628 10.2628C16.8243 3.70133 25.7206 0.0104615 35 0C44.2794 0.0104615 53.1757 3.70133 59.7372 10.2628C66.2987 16.8243 69.9895 25.7206 70 34.9999C69.9895 44.2793 66.2987 53.1757 59.7372 59.7372C53.1757 66.2987 44.2794 69.9895 35 70ZM35 3.04344C26.5261 3.05128 18.4014 6.42034 12.4085 12.4114C6.41562 18.4024 3.04407 26.526 3.0336 34.9999C3.04406 43.4721 6.41426 51.5944 12.405 57.5851C18.3958 63.5759 26.5179 66.9461 34.9901 66.9566C43.4623 66.9461 51.5845 63.5759 57.5752 57.5851C63.566 51.5944 66.9362 43.4721 66.9466 34.9999C66.9362 26.5295 63.5674 18.4088 57.5787 12.4184C51.5901 6.4279 43.4705 3.05651 35 3.04344Z" fill="white"/>
</svg>
