<svg width="671" height="591" viewBox="0 0 671 591" fill="none" xmlns="http://www.w3.org/2000/svg">
<path d="M417.93 591C412.799 590.997 407.678 590.57 402.617 589.725C356.164 581.965 328.765 544.024 299.752 503.859C279.361 475.635 258.277 446.443 229.928 428.55C202.707 411.369 170.052 405.546 138.466 399.882C121.262 396.817 103.475 393.644 86.5979 388.682C35.6405 373.695 -11.0705 328.132 2.32213 280.672C12.6067 244.233 52.7253 226.785 75.7195 219.628C84.8954 216.771 94.4078 214.349 103.613 212.006C125.707 206.381 148.553 200.569 167.954 188.36C195.669 170.902 213.714 142.234 231.156 114.515C241.054 98.6977 251.339 82.4358 263.355 68.1215C299.168 25.4652 357.084 0 418.296 0C469.709 0 517.103 17.448 551.758 49.1313C566.873 62.9712 580.246 79.4307 593.183 95.3662C617.721 125.586 640.894 154.136 675.509 167.403C693.89 174.451 714.044 176.211 733.524 177.921C743.056 178.761 752.915 179.621 762.507 181.094C783.996 184.386 822.066 194.697 835.686 226.736C852.385 266.031 818.116 311.93 775.622 330.149C758.201 337.613 739.473 342.387 721.349 346.954C697.771 352.955 673.381 359.163 652.059 371.362C612.663 393.941 587.778 434.145 563.705 473.035C557.38 483.257 550.837 493.795 544.146 503.878C526.715 530.144 479.558 591 417.93 591ZM418.247 3.0843C357.935 3.0843 300.88 28.1442 265.642 70.1184C253.764 84.2746 243.558 100.497 233.69 116.175C216.07 144.181 197.857 173.146 169.527 190.97C149.731 203.426 126.657 209.308 104.326 214.992C95.1601 217.325 85.6873 219.737 76.6103 222.574C54.2001 229.553 15.1407 246.487 5.2422 281.542C-7.62584 327.213 37.9072 371.224 87.3997 385.805C104.118 390.748 121.827 393.881 138.951 396.926C170.824 402.61 203.786 408.482 231.512 425.98C260.366 444.199 281.628 473.628 302.187 502.099C330.823 541.74 357.866 579.207 403.082 586.739C407.989 587.56 412.955 587.973 417.93 587.975C478.083 587.975 524.448 528.068 541.592 502.307C548.254 492.302 554.787 481.745 561.102 471.543C585.373 432.336 610.466 391.786 650.535 368.831C672.183 356.425 696.771 350.167 720.557 344.117C738.562 339.53 757.181 334.795 774.385 327.421C815.533 309.785 848.841 265.626 832.845 228.001C819.324 196.18 778.799 186.758 762.012 184.178C752.519 182.725 742.71 181.865 733.227 181.035C713.529 179.305 693.168 177.515 674.38 170.319C638.993 156.756 614.485 126.565 590.778 97.3533C577.91 81.5363 564.606 65.1163 549.659 51.4445C515.569 20.2357 468.898 3.09419 418.247 3.09419V3.0843Z" fill="white"/>
</svg>
