<svg width="60" height="41" viewBox="0 0 60 41" fill="none" xmlns="http://www.w3.org/2000/svg">
<g clip-path="url(#clip0_15040_52494)">
<path fill-rule="evenodd" clip-rule="evenodd" d="M30.4188 10.303C30.4188 9.97676 30.6814 9.71227 31.0054 9.71227H42.7428C43.0668 9.71227 43.3294 9.97676 43.3294 10.303C43.3294 10.6293 43.0668 10.8938 42.7428 10.8938H31.0054C30.6814 10.8938 30.4188 10.6293 30.4188 10.303Z" fill="white"/>
<path fill-rule="evenodd" clip-rule="evenodd" d="M30.4188 19.5675C30.4188 19.2412 30.6814 18.9767 31.0054 18.9767H42.7428C43.0668 18.9767 43.3294 19.2412 43.3294 19.5675C43.3294 19.8937 43.0668 20.1582 42.7428 20.1582H31.0054C30.6814 20.1582 30.4188 19.8937 30.4188 19.5675Z" fill="white"/>
<path fill-rule="evenodd" clip-rule="evenodd" d="M30.4188 30.3402C30.4188 30.0139 30.6814 29.7494 31.0054 29.7494H42.7428C43.0668 29.7494 43.3294 30.0139 43.3294 30.3402C43.3294 30.6665 43.0668 30.931 42.7428 30.931H31.0054C30.6814 30.931 30.4188 30.6665 30.4188 30.3402Z" fill="white"/>
<path fill-rule="evenodd" clip-rule="evenodd" d="M51.1597 9.62592L59.9543 30.931H48.9479C48.624 30.931 48.3614 30.6665 48.3614 30.3402C48.3614 30.0139 48.624 29.7494 48.9479 29.7494H58.1961L51.1597 12.7038L43.7857 30.567C43.6614 30.8682 43.3181 31.0109 43.0189 30.8857C42.7198 30.7604 42.5781 30.4147 42.7024 30.1134L51.1597 9.62592Z" fill="white"/>
<path fill-rule="evenodd" clip-rule="evenodd" d="M15.5637 10.303C15.5637 9.97676 15.8263 9.71227 16.1503 9.71227H24.0888C26.6711 9.71227 29.1154 11.7668 29.1154 14.7912C29.1154 16.6583 28.2787 18.0613 27.1071 18.9826C26.8327 19.1984 26.5404 19.3876 26.2363 19.5508C26.8477 19.7184 27.4632 19.9461 28.0419 20.2481C29.721 21.1244 31.1338 22.6602 31.1338 25.1486C31.1338 26.3717 30.7898 27.3697 30.2103 28.1632C29.6356 28.9501 28.8523 29.5048 28.0156 29.8894C26.365 30.6481 24.4207 30.7853 23.1247 30.6879H19.3795C19.0555 30.6879 18.7929 30.4234 18.7929 30.0971C18.7929 29.7709 19.0555 29.5064 19.3795 29.5064H23.1695L23.192 29.5081C24.3628 29.5991 26.1053 29.4688 27.5285 28.8146C28.2335 28.4905 28.8378 28.0483 29.2652 27.4631C29.6878 26.8845 29.9606 26.1351 29.9606 25.1486C29.9606 23.2178 28.9065 22.0301 27.5022 21.2971C26.1118 20.5716 24.4233 20.3262 23.2564 20.3296C23.2198 20.3302 23.1833 20.3305 23.1469 20.3305L23.1378 19.1491C23.1726 19.1486 23.2078 19.1482 23.2435 19.1481C24.3116 19.1272 25.4829 18.7608 26.3851 18.0514C27.2989 17.3328 27.9422 16.2615 27.9422 14.7912C27.9422 12.4759 26.0808 10.8938 24.0888 10.8938H16.1503C15.8263 10.8938 15.5637 10.6293 15.5637 10.303Z" fill="#C51F3F"/>
<path fill-rule="evenodd" clip-rule="evenodd" d="M15.2458 20.8882C15.4075 20.6054 15.7661 20.5082 16.0469 20.671C18.8238 22.2812 19.9661 23.6987 19.9661 25.1486V30.0971C19.9661 30.4234 19.7034 30.6879 19.3795 30.6879C19.0555 30.6879 18.7929 30.4234 18.7929 30.0971V25.1486C18.7929 24.406 18.2152 23.2917 15.4615 21.6949C15.1807 21.5321 15.0842 21.1709 15.2458 20.8882Z" fill="#C51F3F"/>
<path fill-rule="evenodd" clip-rule="evenodd" d="M9.15385 11.262C9.47782 11.262 9.74045 11.5265 9.74045 11.8528V13.9243C9.74045 16.0074 10.9632 17.0583 13.1674 18.6805C13.4289 18.873 13.486 19.2426 13.2949 19.506C13.1037 19.7694 12.7367 19.8269 12.4752 19.6344C10.3218 18.0497 8.56726 16.6746 8.56726 13.9243V11.8528C8.56726 11.5265 8.82989 11.262 9.15385 11.262Z" fill="#C51F3F"/>
<path d="M23.0745 20.583C23.5829 20.583 23.9951 20.1679 23.9951 19.6559C23.9951 19.1439 23.5829 18.7288 23.0745 18.7288C22.5661 18.7288 22.1539 19.1439 22.1539 19.6559C22.1539 20.1679 22.5661 20.583 23.0745 20.583Z" fill="#C51F3F"/>
<path fill-rule="evenodd" clip-rule="evenodd" d="M18.0645 11.2476C18.3885 11.2476 18.6511 11.5121 18.6511 11.8384V12.5337C18.6511 12.86 18.3885 13.1245 18.0645 13.1245C17.7405 13.1245 17.4779 12.86 17.4779 12.5337V11.8384C17.4779 11.5121 17.7405 11.2476 18.0645 11.2476Z" fill="white"/>
<path d="M13.4616 13.6296C13.97 13.6296 14.3822 13.2145 14.3822 12.7025C14.3822 12.1905 13.97 11.7754 13.4616 11.7754C12.9532 11.7754 12.541 12.1905 12.541 12.7025C12.541 13.2145 12.9532 13.6296 13.4616 13.6296Z" fill="#C51F3F"/>
<path d="M15.4078 11.2488C15.9162 11.2488 16.3284 10.8337 16.3284 10.3217C16.3284 9.80965 15.9162 9.39456 15.4078 9.39456C14.8993 9.39456 14.4872 9.80965 14.4872 10.3217C14.4872 10.8337 14.8993 11.2488 15.4078 11.2488Z" fill="#C51F3F"/>
<path fill-rule="evenodd" clip-rule="evenodd" d="M12.99 12.7025C12.99 12.3762 13.2526 12.1118 13.5766 12.1118H22.2071C22.5311 12.1118 22.7937 12.3762 22.7937 12.7025C22.7937 13.0288 22.5311 13.2933 22.2071 13.2933H13.5766C13.2526 13.2933 12.99 13.0288 12.99 12.7025Z" fill="#C51F3F"/>
<path d="M12.6461 16.6428C13.1545 16.6428 13.5666 16.2277 13.5666 15.7157C13.5666 15.2036 13.1545 14.7885 12.6461 14.7885C12.1376 14.7885 11.7255 15.2036 11.7255 15.7157C11.7255 16.2277 12.1376 16.6428 12.6461 16.6428Z" fill="#C51F3F"/>
<path fill-rule="evenodd" clip-rule="evenodd" d="M12.6449 15.7157C12.6449 15.3894 12.9075 15.1249 13.2315 15.1249H20.8264C21.1503 15.1249 21.413 15.3894 21.413 15.7157C21.413 16.0419 21.1503 16.3064 20.8264 16.3064H13.2315C12.9075 16.3064 12.6449 16.0419 12.6449 15.7157Z" fill="#C51F3F"/>
<path fill-rule="evenodd" clip-rule="evenodd" d="M8.98369 27.3464C9.30765 27.3464 9.57028 27.6109 9.57028 27.9372V28.6326C9.57028 28.9588 9.30765 29.2233 8.98369 29.2233C8.65972 29.2233 8.39709 28.9588 8.39709 28.6326V27.9372C8.39709 27.6109 8.65972 27.3464 8.98369 27.3464Z" fill="white"/>
<path d="M12.4985 27.5996C12.4986 27.0875 12.9107 26.6724 13.4191 26.6724C13.9276 26.6724 14.3397 27.0875 14.3397 27.5996C14.3397 28.1117 13.9276 28.5267 13.4191 28.5267C12.9107 28.5267 12.4985 28.1117 12.4985 27.5996Z" fill="white"/>
<path d="M11.808 29.034C11.2996 29.034 10.8875 29.4491 10.8875 29.9611C10.8875 30.4731 11.2996 30.8882 11.808 30.8882C12.3165 30.8882 12.7286 30.4731 12.7286 29.9611C12.7286 29.4491 12.3165 29.034 11.808 29.034Z" fill="white"/>
<path fill-rule="evenodd" clip-rule="evenodd" d="M4.25452 27.5996C4.25452 27.2733 4.51714 27.0088 4.84111 27.0088H13.4716C13.7956 27.0088 14.0582 27.2733 14.0582 27.5996C14.0582 27.9258 13.7956 28.1903 13.4716 28.1903H4.84111C4.51714 28.1903 4.25452 27.9258 4.25452 27.5996Z" fill="white"/>
<path d="M14.4023 23.828C13.8939 23.828 13.4817 24.2431 13.4817 24.7552C13.4817 25.2672 13.8939 25.6823 14.4023 25.6823C14.9107 25.6823 15.3229 25.2672 15.3229 24.7552C15.3229 24.2431 14.9107 23.828 14.4023 23.828Z" fill="white"/>
<path fill-rule="evenodd" clip-rule="evenodd" d="M5.80298 24.7552C5.80298 24.4289 6.0656 24.1644 6.38957 24.1644H13.9844C14.3084 24.1644 14.571 24.4289 14.571 24.7552C14.571 25.0814 14.3084 25.3459 13.9844 25.3459H6.38957C6.0656 25.3459 5.80298 25.0814 5.80298 24.7552Z" fill="white"/>
<path fill-rule="evenodd" clip-rule="evenodd" d="M18.1005 13.6718C18.4245 13.6718 18.6871 13.9363 18.6871 14.2626C18.6871 16.1058 17.529 17.8204 16.21 19.1697C14.8725 20.5379 13.2638 21.6386 12.1434 22.2595L12.116 22.2747L12.0873 22.2868C9.94741 23.1898 9.72141 25.0614 9.685 26.0519C9.67301 26.3779 9.40085 26.6324 9.0771 26.6204C8.75336 26.6083 8.50063 26.3342 8.51262 26.0082C8.55276 24.9162 8.82151 22.4009 11.6041 21.2097C12.6465 20.6288 14.1428 19.6001 15.374 18.3408C16.6339 17.0519 17.5139 15.6264 17.5139 14.2626C17.5139 13.9363 17.7766 13.6718 18.1005 13.6718Z" fill="white"/>
<path fill-rule="evenodd" clip-rule="evenodd" d="M2.88367 30.0443C2.88367 29.718 3.14629 29.4536 3.47026 29.4536H11.5254C11.8494 29.4536 12.112 29.718 12.112 30.0443C12.112 30.3706 11.8494 30.6351 11.5254 30.6351H3.47026C3.14629 30.6351 2.88367 30.3706 2.88367 30.0443Z" fill="white"/>
<path fill-rule="evenodd" clip-rule="evenodd" d="M24.072 1.64221C20.3953 0.899946 16.5816 1.26092 13.1091 2.67976C9.6365 4.09858 6.65991 6.51197 4.55194 9.61697C2.444 12.7219 1.29829 16.3805 1.25802 20.134C1.21776 23.8878 2.2847 27.5702 4.32552 30.7197C6.36637 33.8692 9.29047 36.346 12.7317 37.8392C16.173 39.3324 19.9781 39.7755 23.6699 39.1125C27.3618 38.4494 30.7756 36.7102 33.4839 34.113C33.7185 33.888 34.0898 33.8972 34.3132 34.1334C34.5366 34.3697 34.5275 34.7437 34.2929 34.9687C31.4175 37.7261 27.7938 39.572 23.8758 40.2757C19.958 40.9792 15.92 40.5091 12.2675 38.9243C8.61506 37.3395 5.5104 34.7102 3.34303 31.3654C1.17564 28.0206 0.0421285 24.1091 0.0849079 20.1213C0.127689 16.1336 1.34487 12.2475 3.58348 8.95011C5.82208 5.6527 8.98239 3.09079 12.668 1.58492C16.3536 0.0790495 20.4008 -0.303969 24.3026 0.483735C28.2046 1.27143 31.7879 3.19494 34.6034 6.01369C34.8332 6.24371 34.8343 6.61775 34.6059 6.84914C34.3775 7.08053 34.0061 7.08165 33.7763 6.85163C31.1245 4.19681 27.7488 2.38446 24.072 1.64221L24.1872 1.06362L24.072 1.64221Z" fill="white"/>
</g>
<defs>
<clipPath id="clip0_15040_52494">
<rect width="60" height="40.678" fill="white"/>
</clipPath>
</defs>
</svg>
