<svg width="140" height="39" viewBox="0 0 140 39" fill="none" xmlns="http://www.w3.org/2000/svg">
<path fill-rule="evenodd" clip-rule="evenodd" d="M44.5 15V20.5C43.6 20.8 42.7 20.9 41.8 20.9C38.1 20.9 35.8 18.8 35.8 15.4C35.8 12 38.1 9.90001 41.9 9.90001C43.1 9.90001 44.4 10 45.5 10.5L45.9 10.7L46.7 8.60001L46.3 8.40001C45 7.90001 43.5 7.60001 42.1 7.60001C35.8 7.60001 32.9 11.6 32.9 15.4C32.8 17.5 33.7 19.5 35.2 20.9C36.7 22.4 38.8 23.2 41.5 23.2C43.3 23.2 45.2 22.9 46.9 22.2H47.1V15H44.5Z" fill="white"/>
<path d="M54.6 7.89999H51.9V23.1H54.6V7.89999Z" fill="white"/>
<path fill-rule="evenodd" clip-rule="evenodd" d="M62.4 20.7V7.89999H59.7V23.1H69.4V20.7H62.4Z" fill="white"/>
<path fill-rule="evenodd" clip-rule="evenodd" d="M75.4 20.7V16.1H82.1V13.9H75.4V10.1H82.6V7.89999H72.8V23.1H82.9V20.7H75.4Z" fill="white"/>
<path fill-rule="evenodd" clip-rule="evenodd" d="M92.9 10.9C93.1 11.3 94.4 15.1 94.8 16.2H90.7C90.7 16.2 92.7 11.3 92.9 10.9ZM94.3 7.89999H91.6L85.8 23.1H88.5L90.2 18.6H95.6L97.3 23.1H100.2L94.3 7.89999Z" fill="white"/>
<path fill-rule="evenodd" clip-rule="evenodd" d="M115.6 9.70001C114 8.40001 111.5 7.60001 108.4 7.60001H103.4V9.90001H108.4C110.7 9.90001 112.5 10.5 113.6 11.4C114.5 12.4 115 13.7 115 15C115.1 16.5 114.5 18.1 113.4 19.2C112.2 20.3 110.3 20.9 108 20.9H106.1V13.9H103.4V23H103.6C105 23.2 106.3 23.2 107.7 23.2C111 23.2 113.7 22.2 115.5 20.7C117.1 19.2 117.9 17.1 117.8 15C117.8 13 117 11.1 115.6 9.70001Z" fill="white"/>
<path fill-rule="evenodd" clip-rule="evenodd" d="M24.3 0H24.1C3.89997 1.9 1.39997 15.3 7.99997 19.7C6.79997 24.6 7.99997 24.6 7.99997 24.6C8.09997 23.1 8.39997 21.7 8.79997 20.2C11.3 10.5 17.7 2.2 24.1 0.1C24.3 0.2 24.3 0.2 24.3 0Z" fill="#C51F3F"/>
<path fill-rule="evenodd" clip-rule="evenodd" d="M23 3.40001V3.20001L22.8 3.40001C21.3 6.60001 20.6 11.2 19.5 14.6C18 18.6 15.4 21.4 11.4 21V30.8C11.4 30.8 0.7 26.1 0.7 18.5V4.30001L9.4 3.50001C9.6 3.50001 9.6 3.50001 9.6 3.30001H0V18.4C0 27 11.4 31.7 11.4 31.7C11.4 31.7 23 26.8 23 18.5V3.40001Z" fill="#C51F3F"/>
<path d="M65.6 35.7C65 36.3 64.1 36.7 63.2 36.7C62.3 36.7 61.5 36.4 60.9 35.7C60.3 35 60 34.2 60 33.3C59.9 31.5 61.2 30 63 29.9C63.1 29.9 63.2 29.9 63.2 29.9C64.1 29.9 65 30.2 65.6 30.9L64.7 31.8C64.3 31.4 63.8 31.1 63.2 31.1C62.1 31.1 61.3 32 61.3 33C61.3 33.1 61.3 33.1 61.3 33.2C61.2 34.3 62 35.3 63.1 35.4H63.2C63.8 35.4 64.3 35.2 64.6 34.7L65.6 35.7Z" fill="white"/>
<path d="M68 32V32.7C68.1 32.5 68.2 32.2 68.4 32.1C68.6 32 68.9 31.9 69.1 31.9H69.3V33.2H69C68.7 33.2 68.4 33.3 68.2 33.6C68 33.8 68 34.1 68 34.4V36.6H66.8V32H68Z" fill="white"/>
<path d="M71.4 34.6C71.5 35.3 72.1 35.7 72.8 35.6C73.2 35.5 73.5 35.3 73.7 35L74.8 35.3C74.4 36.1 73.6 36.7 72.6 36.7C71.3 36.8 70.2 35.8 70.2 34.5C70.2 34.4 70.2 34.4 70.2 34.3C70 33 71 31.9 72.3 31.9C72.4 31.9 72.4 31.9 72.5 31.9C73.8 31.8 74.9 32.8 74.9 34.1C74.9 34.2 74.9 34.2 74.9 34.3V34.5H71.4V34.6ZM73.6 33.9C73.5 33.3 73 32.9 72.4 33C71.8 33 71.4 33.4 71.3 33.9H73.6Z" fill="white"/>
<path d="M79.6 32H80.8V36.5H79.6V35.9C79.2 36.4 78.7 36.7 78.1 36.7C76.9 36.7 75.9 35.7 75.9 34.6C75.9 34.5 75.9 34.5 75.9 34.4C75.8 33.1 76.8 32 78 32H78.1C78.7 32 79.2 32.3 79.5 32.7V32H79.6ZM77.2 34.3C77.1 35 77.7 35.6 78.4 35.7C79.1 35.7 79.7 35 79.6 34.3C79.7 33.6 79.2 33 78.5 32.9H78.4C77.7 32.9 77.2 33.5 77.2 34.2C77.2 34.2 77.2 34.3 77.2 34.3Z" fill="white"/>
<path d="M83.8 35.2C83.8 35.4 83.9 35.5 84.1 35.5H84.3V36.5H83.3C82.7 36.5 82.5 36.2 82.5 35.7V33H82V32H82.5V30.8H83.7V32H84.3V33H83.7L83.8 35.2Z" fill="white"/>
<path d="M86.9 30.7C86.8 31.1 86.4 31.3 86 31.2C85.8 31.1 85.6 31 85.5 30.7C85.4 30.3 85.6 29.9 86 29.8C86.4 29.7 86.8 29.9 86.9 30.3C87 30.4 87 30.6 86.9 30.7ZM86.9 36.5H85.7V32H86.9V36.5Z" fill="white"/>
<path d="M89.6 32V32.6C89.8 32.1 90.3 31.9 90.8 31.9C91.2 31.9 91.6 32 91.9 32.3C92.2 32.7 92.4 33.2 92.3 33.7V36.5H91.1V33.7C91.1 33.5 91.1 33.3 91 33.2C90.9 33 90.6 32.9 90.4 32.9C90 32.9 89.6 33.3 89.6 33.7V33.8V36.5H88.4V32H89.6Z" fill="white"/>
<path d="M97.3 32H98.5V36.2C98.6 36.9 98.4 37.6 97.9 38.1C97.4 38.6 96.7 38.8 96 38.8C95.2 38.8 94.4 38.5 93.8 37.9L94.6 37.1C94.9 37.5 95.5 37.7 96 37.7C96.7 37.8 97.2 37.3 97.3 36.6C97.3 36.5 97.3 36.4 97.3 36.4V35.9C96.9 36.4 96.3 36.7 95.7 36.7C94.5 36.7 93.5 35.7 93.5 34.6C93.5 34.5 93.5 34.5 93.5 34.4C93.4 33.2 94.3 32.1 95.5 32C95.6 32 95.7 32 95.8 32C96.4 32 96.9 32.3 97.2 32.7L97.3 32ZM94.9 34.2C94.8 34.9 95.3 35.5 96 35.5C96.4 35.5 96.8 35.4 97.1 35.1C97.3 34.9 97.3 34.6 97.3 34.3C97.3 33.9 97.2 33.5 97 33.2C96.8 33 96.5 32.9 96.2 32.8C95.5 32.8 95 33.3 95 34C94.9 34.2 94.9 34.2 94.9 34.2Z" fill="white"/>
<path d="M104.3 36.5H103V30H105.1C106.6 30 107.5 30.7 107.5 32.1C107.5 33.3 106.7 34.2 105.5 34.3C105.4 34.3 105.3 34.3 105.2 34.3H104.4V36.5H104.3ZM104.9 33.2C105.7 33.2 106.1 32.8 106.1 32.2C106.1 31.6 105.6 31.2 105.1 31.1C105 31.1 105 31.1 104.9 31.1H104.3V33.2H104.9Z" fill="white"/>
<path d="M112.9 34.3C112.9 35.6 111.8 36.7 110.5 36.7C110.5 36.7 110.5 36.7 110.4 36.7C109.1 36.7 108 35.6 108 34.3C108 33 109.1 31.9 110.4 31.9C111.7 31.8 112.8 32.8 112.9 34.1C112.9 34.2 112.9 34.2 112.9 34.3ZM109.3 34.3C109.2 35 109.7 35.5 110.4 35.6C111.1 35.7 111.6 35.2 111.7 34.5C111.7 34.4 111.7 34.4 111.7 34.3C111.8 33.7 111.3 33.1 110.7 33C110.6 33 110.6 33 110.5 33C109.8 33 109.3 33.5 109.3 34.2C109.3 34.2 109.3 34.2 109.3 34.3Z" fill="white"/>
<path d="M116.2 33.3C116.2 33 116 32.8 115.6 32.8C115.3 32.8 115.1 33 115.1 33.2C115.1 33.3 115.1 33.4 115.2 33.5C115.3 33.6 115.4 33.6 116 33.8C117 34.1 117.4 34.5 117.4 35.2C117.4 36.1 116.7 36.6 115.7 36.6C114.9 36.7 114.1 36.1 113.9 35.3V35.2H115.1C115.2 35.6 115.3 35.8 115.7 35.8C115.9 35.8 116.2 35.7 116.2 35.4C116.2 35.1 116 35 115.4 34.8C114.4 34.5 114 34.1 114 33.4C114 32.5 114.7 32 115.7 32C116.5 31.9 117.3 32.5 117.4 33.3C117.4 33.4 117.4 33.4 117.4 33.5L116.2 33.3Z" fill="white"/>
<path d="M120.7 33.3C120.7 32.9 120.4 32.7 120.1 32.8C119.8 32.8 119.6 33 119.6 33.2C119.6 33.3 119.6 33.4 119.7 33.5C119.8 33.6 119.8 33.6 120.5 33.8C121.5 34.1 121.9 34.5 121.9 35.2C121.9 36.1 121.2 36.6 120.2 36.6C119.4 36.7 118.6 36.1 118.4 35.3V35.2H119.6C119.7 35.6 119.8 35.8 120.2 35.8C120.4 35.8 120.7 35.7 120.7 35.4C120.7 35.1 120.5 35 119.9 34.8C118.9 34.5 118.5 34.1 118.5 33.4C118.5 32.5 119.2 32 120.2 32C121 31.9 121.7 32.4 121.9 33.2C121.9 33.3 121.9 33.4 121.9 33.5L120.7 33.3Z" fill="white"/>
<path d="M124.6 30.7C124.5 31.1 124.1 31.3 123.7 31.2C123.5 31.1 123.3 31 123.2 30.7C123.1 30.3 123.3 29.9 123.7 29.8C124.1 29.7 124.5 29.9 124.6 30.3C124.6 30.5 124.6 30.6 124.6 30.7ZM124.5 36.5H123.3V32H124.5V36.5Z" fill="white"/>
<path d="M127.3 36.5H126.1V30H127.3V32.5C127.6 32 128.2 31.8 128.7 31.8C129.9 31.8 131 32.8 131 34C131 34.1 131 34.1 131 34.2C131.1 35.4 130.3 36.4 129.1 36.6C129 36.6 128.9 36.6 128.8 36.6C128.2 36.6 127.6 36.4 127.3 35.9V36.5ZM127.3 34.3C127.2 35 127.7 35.6 128.4 35.6C129.1 35.7 129.7 35.2 129.7 34.5C129.7 34.4 129.7 34.3 129.7 34.2C129.8 33.5 129.2 32.9 128.5 32.8C127.8 32.9 127.2 33.6 127.3 34.3Z" fill="white"/>
<path d="M132.3 36.5V30H133.5V36.5H132.3Z" fill="white"/>
<path d="M136.1 34.6C136.2 35.3 136.8 35.7 137.5 35.6C137.9 35.5 138.2 35.3 138.4 35L139.5 35.3C139.1 36.1 138.3 36.7 137.3 36.7C136 36.8 134.9 35.8 134.9 34.5C134.9 34.4 134.9 34.4 134.9 34.3C134.8 33 135.8 32 137.1 31.9C137.2 31.9 137.2 31.9 137.3 31.9C138.6 31.8 139.7 32.8 139.7 34.1C139.7 34.2 139.7 34.2 139.7 34.3V34.5H136.1V34.6ZM138.4 33.9C138.3 33.3 137.8 32.9 137.3 33C136.7 33 136.3 33.4 136.2 33.9H138.4Z" fill="white"/>
</svg>
