<svg width="120" height="111" viewBox="0 0 120 111" fill="none" xmlns="http://www.w3.org/2000/svg">
<path d="M98.5969 11.7138C56.9051 18.2145 56.393 -2.26805 26.3135 2.79399C-7.54501 8.49188 -5.24157 63.871 13.6059 86.6461C46.6446 126.57 113.893 115.823 105.68 51.8163C104.58 43.2403 110.819 38.6215 116.704 33.5044C124.097 27.0774 119.467 8.45977 98.5969 11.7138V11.7138Z" fill="url(#paint0_linear_610_63360)"/>
<path d="M109.369 19.3024V92.7603C109.369 94.054 108.319 95.104 107.025 95.104H12.975C11.6812 95.104 10.6312 94.054 10.6312 92.7603V19.3024C10.6312 18.0087 11.6812 16.9587 12.975 16.9587H107.025C108.319 16.9587 109.369 18.0087 109.369 19.3024V19.3024Z" fill="#9494FF"/>
<path d="M97.1203 16.9587V24.9345C97.1203 26.2282 96.0703 27.2782 94.7765 27.2782H25.2234C23.9296 27.2782 22.8796 26.2282 22.8796 24.9345V16.9587H97.1203Z" fill="#8383FF"/>
<path d="M102.338 26.3337V85.729C102.338 87.0228 101.288 88.0728 99.9938 88.0728H20.0062C18.7125 88.0728 17.6625 87.0228 17.6625 85.729V26.3337C17.6625 25.0399 18.7125 23.9899 20.0062 23.9899H99.9938C101.288 23.9899 102.338 25.0399 102.338 26.3337Z" fill="#D9D9FF"/>
<path d="M34.5241 36.5264H25.4812C24.8341 36.5264 24.3093 36.0017 24.3093 35.3546C24.3093 34.7074 24.8341 34.1827 25.4812 34.1827H34.5241C35.1712 34.1827 35.696 34.7074 35.696 35.3546C35.696 36.0017 35.1712 36.5264 34.5241 36.5264Z" fill="#FF6C6C"/>
<path d="M42.9616 43.647H25.4812C24.8341 43.647 24.3093 43.1222 24.3093 42.4751C24.3093 41.828 24.8341 41.3032 25.4812 41.3032H42.9616C43.6087 41.3032 44.1335 41.828 44.1335 42.4751C44.1335 43.1222 43.6087 43.647 42.9616 43.647Z" fill="#9494FF"/>
<path d="M42.9616 48.424H25.4812C24.8341 48.424 24.3093 47.8992 24.3093 47.2521C24.3093 46.605 24.8341 46.0803 25.4812 46.0803H42.9616C43.6087 46.0803 44.1335 46.605 44.1335 47.2521C44.1335 47.8992 43.6087 48.424 42.9616 48.424Z" fill="#9494FF"/>
<path d="M42.9616 53.2008H25.4812C24.8341 53.2008 24.3093 52.676 24.3093 52.0289C24.3093 51.3818 24.8341 50.8571 25.4812 50.8571H42.9616C43.6087 50.8571 44.1335 51.3818 44.1335 52.0289C44.1335 52.676 43.6087 53.2008 42.9616 53.2008Z" fill="#9494FF"/>
<path d="M42.9616 57.9778H25.4812C24.8341 57.9778 24.3093 57.4531 24.3093 56.806C24.3093 56.1589 24.8341 55.6341 25.4812 55.6341H42.9616C43.6087 55.6341 44.1335 56.1589 44.1335 56.806C44.1335 57.4531 43.6087 57.9778 42.9616 57.9778Z" fill="#9494FF"/>
<path d="M29.8366 67.8891H25.4812C24.8341 67.8891 24.3093 67.3643 24.3093 66.7172C24.3093 66.0701 24.8341 65.5453 25.4812 65.5453H29.8366C30.4837 65.5453 31.0085 66.0701 31.0085 66.7172C31.0085 67.3643 30.4837 67.8891 29.8366 67.8891Z" fill="#FF6C6C"/>
<path d="M38.2741 75.0096H25.4812C24.8341 75.0096 24.3093 74.4849 24.3093 73.8378C24.3093 73.1907 24.8341 72.6659 25.4812 72.6659H38.2741C38.9212 72.6659 39.446 73.1907 39.446 73.8378C39.446 74.4849 38.9212 75.0096 38.2741 75.0096Z" fill="#9494FF"/>
<path d="M38.2741 79.7867H25.4812C24.8341 79.7867 24.3093 79.2619 24.3093 78.6148C24.3093 77.9677 24.8341 77.4429 25.4812 77.4429H38.2741C38.9212 77.4429 39.446 77.9677 39.446 78.6148C39.446 79.2619 38.9212 79.7867 38.2741 79.7867Z" fill="#9494FF"/>
<path d="M60.3022 36.5264H51.2593C50.6122 36.5264 50.0874 36.0017 50.0874 35.3546C50.0874 34.7074 50.6122 34.1827 51.2593 34.1827H60.3022C60.9493 34.1827 61.474 34.7074 61.474 35.3546C61.474 36.0017 60.9493 36.5264 60.3022 36.5264Z" fill="#FF6C6C"/>
<path d="M68.7397 43.647H51.2593C50.6122 43.647 50.0874 43.1222 50.0874 42.4751C50.0874 41.828 50.6122 41.3032 51.2593 41.3032H68.7397C69.3868 41.3032 69.9116 41.828 69.9116 42.4751C69.9116 43.1222 69.3868 43.647 68.7397 43.647Z" fill="#FF8B00"/>
<path d="M68.7397 48.424H51.2593C50.6122 48.424 50.0874 47.8992 50.0874 47.2521C50.0874 46.605 50.6122 46.0803 51.2593 46.0803H68.7397C69.3868 46.0803 69.9116 46.605 69.9116 47.2521C69.9116 47.8992 69.3868 48.424 68.7397 48.424Z" fill="#FF8B00"/>
<path d="M68.7397 53.2008H51.2593C50.6122 53.2008 50.0874 52.676 50.0874 52.0289C50.0874 51.3818 50.6122 50.8571 51.2593 50.8571H68.7397C69.3868 50.8571 69.9116 51.3818 69.9116 52.0289C69.9116 52.676 69.3868 53.2008 68.7397 53.2008Z" fill="#FF8B00"/>
<path d="M68.7397 57.9778H51.2593C50.6122 57.9778 50.0874 57.4531 50.0874 56.806C50.0874 56.1589 50.6122 55.6341 51.2593 55.6341H68.7397C69.3868 55.6341 69.9116 56.1589 69.9116 56.806C69.9116 57.4531 69.3868 57.9778 68.7397 57.9778Z" fill="#FF8B00"/>
<path d="M96.6281 35.3548V78.6063C96.6281 79.2532 96.1031 79.7782 95.4563 79.7782H76.1016C75.4547 79.7782 74.9297 79.2532 74.9297 78.6063V35.3548C74.9297 34.7079 75.4547 34.1829 76.1016 34.1829H95.4563C96.1031 34.1829 96.6281 34.7079 96.6281 35.3548Z" fill="#FFAB66"/>
<path d="M94.7756 21.6525H25.2244C23.9299 21.6525 22.8806 20.6032 22.8806 19.3088V14.682C22.8806 13.3875 23.9299 12.3382 25.2244 12.3382H94.7754C96.0699 12.3382 97.1192 13.3875 97.1192 14.682V19.3088C97.1194 20.6032 96.0699 21.6525 94.7756 21.6525V21.6525Z" fill="#D9D9FF"/>
<path d="M42.4172 12.3382H77.5829V21.6525H42.4172V12.3382Z" fill="#B3B3FF"/>
<path d="M72.8349 104.95H47.1652C45.8707 104.95 44.8214 103.901 44.8214 102.606V66.6331C44.8214 65.3386 45.8707 64.2893 47.1652 64.2893H72.8349C74.1293 64.2893 75.1786 65.3386 75.1786 66.6331V102.606C75.1786 103.901 74.1293 104.95 72.8349 104.95Z" fill="white"/>
<path d="M57.4902 73.7802H53.1348C52.4877 73.7802 51.9629 73.2554 51.9629 72.6083C51.9629 71.9612 52.4877 71.4364 53.1348 71.4364H57.4902C58.1373 71.4364 58.662 71.9612 58.662 72.6083C58.662 73.2554 58.1375 73.7802 57.4902 73.7802Z" fill="#FF6C6C"/>
<path d="M66.8652 78.5569H53.1348C52.4877 78.5569 51.9629 78.0322 51.9629 77.3851C51.9629 76.738 52.4877 76.2132 53.1348 76.2132H66.8652C67.5123 76.2132 68.037 76.738 68.037 77.3851C68.037 78.0322 67.5125 78.5569 66.8652 78.5569Z" fill="#FFAB66"/>
<path d="M66.8652 83.334H53.1348C52.4877 83.334 51.9629 82.8092 51.9629 82.1621C51.9629 81.515 52.4877 80.9902 53.1348 80.9902H66.8652C67.5123 80.9902 68.037 81.515 68.037 82.1621C68.037 82.8092 67.5125 83.334 66.8652 83.334Z" fill="#FFAB66"/>
<path d="M66.8652 92.9832H57.3535C56.7064 92.9832 56.1816 92.4584 56.1816 91.8113C56.1816 91.1642 56.7064 90.6394 57.3535 90.6394H66.8652C67.5123 90.6394 68.037 91.1642 68.037 91.8113C68.037 92.4584 67.5125 92.9832 66.8652 92.9832Z" fill="#FFAB66"/>
<path d="M53.1348 92.9832C53.782 92.9832 54.3066 92.4585 54.3066 91.8113C54.3066 91.1641 53.782 90.6394 53.1348 90.6394C52.4876 90.6394 51.9629 91.1641 51.9629 91.8113C51.9629 92.4585 52.4876 92.9832 53.1348 92.9832Z" fill="#FF6C6C"/>
<path d="M53.1348 97.76C53.782 97.76 54.3066 97.2353 54.3066 96.5881C54.3066 95.9409 53.782 95.4162 53.1348 95.4162C52.4876 95.4162 51.9629 95.9409 51.9629 96.5881C51.9629 97.2353 52.4876 97.76 53.1348 97.76Z" fill="#FF6C6C"/>
<path d="M66.8652 97.76H57.3535C56.7064 97.76 56.1816 97.2352 56.1816 96.5881C56.1816 95.941 56.7064 95.4162 57.3535 95.4162H66.8652C67.5123 95.4162 68.037 95.941 68.037 96.5881C68.037 97.2352 67.5125 97.76 66.8652 97.76Z" fill="#FFAB66"/>
<path d="M97.1203 23.9899V24.9345C97.1203 26.2282 96.0703 27.2782 94.7765 27.2782H25.2234C23.9296 27.2782 22.8796 26.2282 22.8796 24.9345V23.9899H97.1203Z" fill="#B3B3FF"/>
<path d="M85.779 107.367C85.1316 107.367 84.6071 106.842 84.6071 106.195C84.6071 105.377 83.941 104.711 83.1226 104.711C82.4752 104.711 81.9507 104.186 81.9507 103.539C81.9507 102.892 82.4752 102.367 83.1226 102.367C83.941 102.367 84.6071 101.701 84.6071 100.883C84.6071 100.236 85.1316 99.7109 85.779 99.7109C86.4263 99.7109 86.9508 100.236 86.9508 100.883C86.9508 101.701 87.6167 102.367 88.4351 102.367C89.0825 102.367 89.607 102.892 89.607 103.539C89.607 104.186 89.0825 104.711 88.4351 104.711C87.6167 104.711 86.9508 105.377 86.9508 106.195C86.9508 106.842 86.4263 107.367 85.779 107.367Z" fill="#FFAB66"/>
<path d="M12.9363 11.367C12.2892 11.367 11.7644 10.8422 11.7644 10.1951C11.7644 9.37664 11.0986 8.71078 10.2802 8.71078C9.63304 8.71078 9.10828 8.18602 9.10828 7.53891C9.10828 6.8918 9.63304 6.36703 10.2802 6.36703C11.0986 6.36703 11.7644 5.70117 11.7644 4.88274C11.7644 4.23563 12.2892 3.71086 12.9363 3.71086C13.5834 3.71086 14.1082 4.23563 14.1082 4.88274C14.1082 5.70117 14.7741 6.36703 15.5925 6.36703C16.2396 6.36703 16.7644 6.8918 16.7644 7.53891C16.7644 8.18602 16.2396 8.71078 15.5925 8.71078C14.7741 8.71078 14.1082 9.37664 14.1082 10.1951C14.1082 10.8422 13.5834 11.367 12.9363 11.367V11.367Z" fill="#FF6C6C"/>
<path d="M89.4984 7.6561C88.8511 7.6561 88.3266 7.13133 88.3266 6.48422C88.3266 5.66578 87.6605 4.99992 86.842 4.99992C86.1947 4.99992 85.6702 4.47516 85.6702 3.82805C85.6702 3.18094 86.1947 2.65617 86.842 2.65617C87.6605 2.65617 88.3266 1.99031 88.3266 1.17188C88.3266 0.524766 88.8511 0 89.4984 0C90.1458 0 90.6703 0.524766 90.6703 1.17188C90.6703 1.99031 91.3362 2.65617 92.1546 2.65617C92.802 2.65617 93.3265 3.18094 93.3265 3.82805C93.3265 4.47516 92.802 4.99992 92.1546 4.99992C91.3362 4.99992 90.6703 5.66578 90.6703 6.48422C90.6703 7.13133 90.1458 7.6561 89.4984 7.6561Z" fill="#FF6C6C"/>
<path d="M102.77 8.71078C102.471 8.71078 102.17 8.59641 101.942 8.36766L100.661 7.08703L99.3802 8.36766C98.923 8.82516 98.1804 8.82516 97.7232 8.36766C97.2654 7.90992 97.2654 7.16789 97.7232 6.71039L99.8326 4.60101C100.29 4.14351 101.032 4.14351 101.49 4.60101L103.599 6.71039C104.057 7.16812 104.057 7.91016 103.599 8.36766C103.37 8.59617 103.07 8.71078 102.77 8.71078Z" fill="#8383FF"/>
<path d="M35.2272 108.422C34.9272 108.422 34.6275 108.307 34.3985 108.079L33.1179 106.798L31.8372 108.079C31.3795 108.536 30.6377 108.536 30.18 108.079C29.7222 107.621 29.7222 106.879 30.18 106.421L32.2893 104.312C32.7471 103.854 33.4889 103.854 33.9466 104.312L36.056 106.421C36.5137 106.879 36.5137 107.621 36.056 108.079C35.827 108.307 35.5272 108.422 35.2272 108.422Z" fill="#FF6C6C"/>
<path d="M107.025 16.9587H12.975C11.6812 16.9587 10.6312 18.0087 10.6312 19.3024V92.7603C10.6312 94.054 11.6812 95.104 12.975 95.104H44.8214V102.606C44.8214 103.901 45.8707 104.95 47.1651 104.95H72.8348C74.1293 104.95 75.1786 103.901 75.1786 102.606V95.104H107.025C108.319 95.104 109.369 94.054 109.369 92.7603V19.3024C109.369 18.0087 108.319 16.9587 107.025 16.9587Z" fill="url(#paint1_linear_610_63360)"/>
<defs>
<linearGradient id="paint0_linear_610_63360" x1="19.5413" y1="93.0764" x2="97.3796" y2="0.312422" gradientUnits="userSpaceOnUse">
<stop stop-color="#FFD9D9" stop-opacity="0"/>
<stop offset="0.9981" stop-color="#FFB3B3"/>
</linearGradient>
<linearGradient id="paint1_linear_610_63360" x1="60" y1="104.95" x2="60" y2="16.9587" gradientUnits="userSpaceOnUse">
<stop stop-color="#FF4D4D" stop-opacity="0.4"/>
<stop offset="0.1463" stop-color="#FF4D4D" stop-opacity="0.342"/>
<stop offset="1" stop-color="#FF4D4D" stop-opacity="0"/>
</linearGradient>
</defs>
</svg>
