<svg width="15" height="16" viewBox="0 0 15 16" fill="none" xmlns="http://www.w3.org/2000/svg">
<path d="M11.0669 1.30811L10.1831 2.19199L11.6161 3.62505H10C8.27411 3.62505 6.875 5.02416 6.875 6.75005V11.125H8.125V6.75005C8.125 5.71451 8.96447 4.87505 10 4.87505H11.6161L10.1831 6.30811L11.0669 7.19199L14.0089 4.25005L11.0669 1.30811Z" fill="#868C92"/>
<path d="M1.25 3.00005C1.25 2.30969 1.80964 1.75005 2.5 1.75005H7.5V3.00005L2.5 3.00005V13H12.5V8.00005H13.75V13C13.75 13.6904 13.1904 14.25 12.5 14.25H2.5C1.80964 14.25 1.25 13.6904 1.25 13V3.00005Z" fill="#868C92"/>
</svg>
