<svg width="120" height="109" viewBox="0 0 120 109" fill="none" xmlns="http://www.w3.org/2000/svg">
<path d="M98.5969 9.7332C56.9051 16.2338 56.393 -4.24868 26.3135 0.813349C-7.54501 6.51148 -5.24157 61.8903 13.6059 84.6655C46.6446 124.589 113.893 113.842 105.68 49.8357C104.58 41.2597 110.819 36.6409 116.704 31.5237C124.097 25.0967 119.467 6.47913 98.5969 9.7332V9.7332Z" fill="url(#paint0_linear_610_63105)"/>
<path d="M107.368 94.1382H12.6321C11.4201 94.1382 10.4374 93.1557 10.4374 91.9435V36.7878C10.4374 35.5759 11.4199 34.5931 12.6321 34.5931H107.368C108.58 34.5931 109.562 35.5756 109.562 36.7878V91.9435C109.562 93.1557 108.58 94.1382 107.368 94.1382V94.1382Z" fill="#FFAB66"/>
<path d="M10.4377 40.7647H109.563V81.0106H10.4377V40.7647Z" fill="#FFC599"/>
<path d="M102.251 72.271V83.0429C102.251 84.2546 101.269 85.2367 100.057 85.2367H60V72.271H102.251Z" fill="#9494FF"/>
<path d="M102.251 72.271V82.4523C102.251 81.2406 101.271 80.2562 100.057 80.2562H70.9734C67.125 80.2562 63.7383 82.239 61.7789 85.2367H60V72.271H102.251Z" fill="#8383FF"/>
<path d="M60 72.271V85.2367H19.9828C18.7688 85.2367 17.7867 84.2546 17.7867 83.0429V72.271H60Z" fill="#9494FF"/>
<path d="M60 72.271V85.2367H58.2211C56.2618 82.239 52.875 80.2562 49.0266 80.2562H19.943C18.8672 80.2562 17.9742 81.0296 17.7867 82.0515V72.271H60Z" fill="#8383FF"/>
<path d="M60.0001 37.7218V84.6624C60.0001 84.8617 59.9743 85.0539 59.9227 85.2367C59.2782 79.7921 54.6446 75.5687 49.0266 75.5687H19.943C18.729 75.5687 17.7493 76.5531 17.7493 77.7648V28.9445C17.7493 27.7327 18.729 26.7484 19.943 26.7484H49.0266C55.0852 26.7484 60.0001 31.6632 60.0001 37.7218V37.7218Z" fill="white"/>
<path d="M60 37.7218V42.5992C58.8164 42.5992 57.6328 42.4351 56.4844 42.1093L42.2039 38.064C41.2781 37.8015 40.6406 36.9554 40.6406 35.9945V26.7484H49.0266C55.0852 26.7484 60 31.6632 60 37.7218V37.7218Z" fill="#D9D9FF"/>
<path d="M102.251 28.9445V77.7648C102.251 76.5531 101.271 75.5687 100.057 75.5687H70.9734C65.3555 75.5687 60.7219 79.7921 60.0773 85.2367C60.0258 85.0539 60 84.8617 60 84.6624V37.7218C60 31.6632 64.9148 26.7484 70.9734 26.7484H100.057C101.271 26.7484 102.251 27.7327 102.251 28.9445V28.9445Z" fill="#D9D9FF"/>
<path d="M79.3594 26.7484V35.9945C79.3594 36.9554 78.7219 37.8015 77.7961 38.064L63.5156 42.1093C62.3672 42.4351 61.1836 42.5992 60 42.5992V37.7218C60 31.6632 64.9148 26.7484 70.9734 26.7484H79.3594Z" fill="#B3B3FF"/>
<path d="M62.2725 96.3521H57.7273C56.5153 96.3521 55.5326 95.3696 55.5326 94.1575V85.2367H64.467V94.1577C64.4672 95.3696 63.4847 96.3521 62.2725 96.3521Z" fill="#FFE8DC"/>
<path d="M30.976 35.9141H26.6206C25.9735 35.9141 25.4487 35.3893 25.4487 34.7422C25.4487 34.0951 25.9735 33.5703 26.6206 33.5703H30.976C31.6231 33.5703 32.1479 34.0951 32.1479 34.7422C32.1479 35.3893 31.6231 35.9141 30.976 35.9141Z" fill="#FF6C6C"/>
<path d="M48.7885 43.0346H26.6206C25.9735 43.0346 25.4487 42.5098 25.4487 41.8627C25.4487 41.2156 25.9735 40.6909 26.6206 40.6909H48.7885C49.4356 40.6909 49.9604 41.2156 49.9604 41.8627C49.9604 42.5098 49.4356 43.0346 48.7885 43.0346Z" fill="#9494FF"/>
<path d="M48.7885 47.8116H26.6206C25.9735 47.8116 25.4487 47.2869 25.4487 46.6398C25.4487 45.9927 25.9735 45.4679 26.6206 45.4679H48.7885C49.4356 45.4679 49.9604 45.9927 49.9604 46.6398C49.9604 47.2869 49.4356 47.8116 48.7885 47.8116Z" fill="#9494FF"/>
<path d="M48.7885 52.5884H26.6206C25.9735 52.5884 25.4487 52.0637 25.4487 51.4166C25.4487 50.7695 25.9735 50.2447 26.6206 50.2447H48.7885C49.4356 50.2447 49.9604 50.7695 49.9604 51.4166C49.9604 52.0637 49.4356 52.5884 48.7885 52.5884Z" fill="#9494FF"/>
<path d="M48.7885 57.3655H26.6206C25.9735 57.3655 25.4487 56.8407 25.4487 56.1936C25.4487 55.5465 25.9735 55.0217 26.6206 55.0217H48.7885C49.4356 55.0217 49.9604 55.5465 49.9604 56.1936C49.9604 56.8407 49.4356 57.3655 48.7885 57.3655Z" fill="#9494FF"/>
<path d="M48.7885 62.1423H26.6206C25.9735 62.1423 25.4487 61.6175 25.4487 60.9704C25.4487 60.3233 25.9735 59.7985 26.6206 59.7985H48.7885C49.4356 59.7985 49.9604 60.3233 49.9604 60.9704C49.9604 61.6175 49.4356 62.1423 48.7885 62.1423Z" fill="#9494FF"/>
<path d="M48.7885 66.9193H26.6206C25.9735 66.9193 25.4487 66.3945 25.4487 65.7474C25.4487 65.1003 25.9735 64.5756 26.6206 64.5756H48.7885C49.4356 64.5756 49.9604 65.1003 49.9604 65.7474C49.9604 66.3945 49.4356 66.9193 48.7885 66.9193Z" fill="#9494FF"/>
<path d="M89.0242 35.914H93.3796C94.0267 35.914 94.5514 35.3893 94.5514 34.7422C94.5514 34.095 94.0267 33.5703 93.3796 33.5703H89.0242C88.3771 33.5703 87.8523 34.095 87.8523 34.7422C87.8523 35.3893 88.3771 35.914 89.0242 35.914Z" fill="#FF6C6C"/>
<path d="M71.2115 43.0346H93.3794C94.0266 43.0346 94.5513 42.5098 94.5513 41.8627C94.5513 41.2156 94.0266 40.6908 93.3794 40.6908H71.2115C70.5644 40.6908 70.0397 41.2156 70.0397 41.8627C70.0397 42.5098 70.5644 43.0346 71.2115 43.0346Z" fill="#8383FF"/>
<path d="M71.2115 47.8116H93.3794C94.0266 47.8116 94.5513 47.2869 94.5513 46.6398C94.5513 45.9926 94.0266 45.4679 93.3794 45.4679H71.2115C70.5644 45.4679 70.0397 45.9926 70.0397 46.6398C70.0397 47.2869 70.5644 47.8116 71.2115 47.8116Z" fill="#8383FF"/>
<path d="M71.2115 52.5884H93.3794C94.0266 52.5884 94.5513 52.0637 94.5513 51.4166C94.5513 50.7694 94.0266 50.2447 93.3794 50.2447H71.2115C70.5644 50.2447 70.0397 50.7694 70.0397 51.4166C70.0397 52.0637 70.5644 52.5884 71.2115 52.5884Z" fill="#8383FF"/>
<path d="M71.2115 57.3655H93.3794C94.0266 57.3655 94.5513 56.8407 94.5513 56.1936C94.5513 55.5465 94.0266 55.0217 93.3794 55.0217H71.2115C70.5644 55.0217 70.0397 55.5465 70.0397 56.1936C70.0397 56.8407 70.5644 57.3655 71.2115 57.3655Z" fill="#8383FF"/>
<path d="M71.2115 62.1423H93.3794C94.0266 62.1423 94.5513 61.6175 94.5513 60.9704C94.5513 60.3233 94.0266 59.7985 93.3794 59.7985H71.2115C70.5644 59.7985 70.0397 60.3233 70.0397 60.9704C70.0397 61.6175 70.5644 62.1423 71.2115 62.1423Z" fill="#8383FF"/>
<path d="M71.2115 66.9193H93.3794C94.0266 66.9193 94.5513 66.3945 94.5513 65.7474C94.5513 65.1003 94.0266 64.5755 93.3794 64.5755H71.2115C70.5644 64.5755 70.0397 65.1003 70.0397 65.7474C70.0397 66.3945 70.5644 66.9193 71.2115 66.9193Z" fill="#8383FF"/>
<path d="M79.3594 15.7098V31.1832C79.3594 32.1442 78.7219 32.9902 77.7961 33.2528L63.5156 37.2983C61.2164 37.9499 58.7836 37.9499 56.4844 37.2983L42.2039 33.253C41.2781 32.9905 40.6406 32.1444 40.6406 31.1835V15.71H79.3594V15.7098Z" fill="#6C6CFF"/>
<path d="M79.3594 14.896V22.8015L60.7125 29.364C60.2508 29.5257 59.7492 29.5257 59.2875 29.364L40.6406 22.8015V14.896H79.3594Z" fill="#4D4DFF"/>
<path d="M59.2866 2.73781L32.3309 12.2244C31.3739 12.5612 31.3739 13.9147 32.3309 14.2515L59.2868 23.7381C59.7485 23.9005 60.2517 23.9005 60.7135 23.7381L87.6692 14.2515C88.6261 13.9147 88.6261 12.5612 87.6692 12.2244L60.7135 2.73781C60.2517 2.57516 59.7483 2.57516 59.2866 2.73781Z" fill="#9494FF"/>
<path d="M21.2996 20.7408C20.6523 20.7408 20.1277 20.2161 20.1277 19.569C20.1277 18.7505 19.4616 18.0847 18.6432 18.0847C17.9958 18.0847 17.4713 17.5599 17.4713 16.9128C17.4713 16.2657 17.9958 15.7409 18.6432 15.7409C19.4616 15.7409 20.1277 15.0751 20.1277 14.2566C20.1277 13.6095 20.6523 13.0847 21.2996 13.0847C21.9469 13.0847 22.4715 13.6095 22.4715 14.2566C22.4715 15.0751 23.1373 15.7409 23.9558 15.7409C24.6031 15.7409 25.1276 16.2657 25.1276 16.9128C25.1276 17.5599 24.6031 18.0847 23.9558 18.0847C23.1373 18.0847 22.4715 18.7505 22.4715 19.569C22.4715 20.2163 21.9469 20.7408 21.2996 20.7408Z" fill="#FFAB66"/>
<path d="M98.3647 20.9375C97.7173 20.9375 97.1928 20.4127 97.1928 19.7656C97.1928 18.9472 96.5267 18.2813 95.7083 18.2813C95.0609 18.2813 94.5364 17.7565 94.5364 17.1094C94.5364 16.4623 95.0609 15.9376 95.7083 15.9376C96.5267 15.9376 97.1928 15.2717 97.1928 14.4533C97.1928 13.8062 97.7173 13.2814 98.3647 13.2814C99.012 13.2814 99.5365 13.8062 99.5365 14.4533C99.5365 15.2717 100.202 15.9376 101.021 15.9376C101.668 15.9376 102.193 16.4623 102.193 17.1094C102.193 17.7565 101.668 18.2813 101.021 18.2813C100.202 18.2813 99.5365 18.9472 99.5365 19.7656C99.5365 20.413 99.012 20.9375 98.3647 20.9375Z" fill="#FF6C6C"/>
<path d="M86.2414 4.54014C85.9416 4.54014 85.6414 4.42577 85.4129 4.19702L84.132 2.91639L82.8512 4.19702C82.3939 4.65452 81.6514 4.65452 81.1941 4.19702C80.7364 3.73928 80.7364 2.99725 81.1941 2.53975L83.3035 0.430375C83.7608 -0.0271253 84.5033 -0.0271253 84.9605 0.430375L87.0699 2.53975C87.5276 2.99749 87.5276 3.73952 87.0699 4.19702C86.8412 4.42577 86.5412 4.54014 86.2414 4.54014Z" fill="#8383FF"/>
<path d="M50.4175 104.204C50.1178 104.204 49.8175 104.089 49.589 103.861L48.3082 102.58L47.0273 103.861C46.57 104.318 45.8275 104.318 45.3703 103.861C44.9125 103.403 44.9125 102.661 45.3703 102.203L47.4797 100.094C47.9369 99.6364 48.6794 99.6364 49.1367 100.094L51.2461 102.203C51.7038 102.661 51.7038 103.403 51.2461 103.861C51.0175 104.089 50.7175 104.204 50.4175 104.204Z" fill="#FF6C6C"/>
<path d="M37.1076 107.523C36.8078 107.523 36.5076 107.409 36.2791 107.18L34.9982 105.9L33.7174 107.18C33.2601 107.638 32.5176 107.638 32.0603 107.18C31.6026 106.723 31.6026 105.98 32.0603 105.523L34.1697 103.414C34.627 102.956 35.3695 102.956 35.8267 103.414L37.9361 105.523C38.3939 105.981 38.3939 106.723 37.9361 107.18C37.7076 107.409 37.4074 107.523 37.1076 107.523Z" fill="#FFAB66"/>
<path d="M107.368 34.5931H102.251V28.9445C102.251 27.7327 101.271 26.7484 100.057 26.7484H79.3594V17.1758L87.6691 14.2512C88.6261 13.9144 88.6261 12.5609 87.6691 12.2241L60.7134 2.7378C60.2517 2.57538 59.7483 2.57538 59.2868 2.7378L32.3308 12.2244C31.3739 12.5612 31.3739 13.9147 32.3308 14.2515L40.6406 17.1758V26.7484H19.9429C18.7289 26.7484 17.7492 27.7327 17.7492 28.9445V34.5931H12.6321C11.4199 34.5931 10.4374 35.5756 10.4374 36.7878V91.9435C10.4374 93.1557 11.4199 94.1382 12.6321 94.1382H107.368C108.58 94.1382 109.562 93.1557 109.562 91.9435V36.7878C109.563 35.5756 108.58 34.5931 107.368 34.5931V34.5931Z" fill="url(#paint1_linear_610_63105)"/>
<defs>
<linearGradient id="paint0_linear_610_63105" x1="19.5413" y1="91.0958" x2="97.3796" y2="-1.66821" gradientUnits="userSpaceOnUse">
<stop stop-color="white" stop-opacity="0"/>
<stop offset="0.2532" stop-color="#EEEEFF" stop-opacity="0.403"/>
<stop offset="0.629" stop-color="#D9D9FF"/>
</linearGradient>
<linearGradient id="paint1_linear_610_63105" x1="60" y1="94.1382" x2="60" y2="2.61592" gradientUnits="userSpaceOnUse">
<stop stop-color="#FF4D4D" stop-opacity="0.4"/>
<stop offset="0.1463" stop-color="#FF4D4D" stop-opacity="0.342"/>
<stop offset="1" stop-color="#FF4D4D" stop-opacity="0"/>
</linearGradient>
</defs>
</svg>
