<svg width="121" height="126" viewBox="0 0 121 126" fill="none" xmlns="http://www.w3.org/2000/svg">
<path d="M67.6401 1.19694C44.4358 8.02068 49.0899 24.2129 46.4945 42.1549C43.2553 64.5479 29.2556 53.0658 13.1711 65.1593C-14.6329 86.0641 5.56409 132.21 40.0933 125.202C58.4283 121.481 62.1749 107.963 69.6531 93.5196C79.3265 74.8351 95.3677 79.9292 109.757 67.7315C138.938 42.9948 100.558 -8.48335 67.6401 1.19694V1.19694Z" fill="url(#paint0_linear_610_63780)"/>
<path d="M60.1161 72.4244C66.5659 72.4244 71.7944 67.1959 71.7944 60.7462C71.7944 54.2964 66.5659 49.0679 60.1161 49.0679C53.6664 49.0679 48.4379 54.2964 48.4379 60.7462C48.4379 67.1959 53.6664 72.4244 60.1161 72.4244Z" fill="white"/>
<path d="M73.245 22.5516C76.2811 22.5516 78.7424 20.0903 78.7424 17.0542C78.7424 14.018 76.2811 11.5568 73.245 11.5568C70.2088 11.5568 67.7476 14.018 67.7476 17.0542C67.7476 20.0903 70.2088 22.5516 73.245 22.5516Z" fill="#C51F3F"/>
<path d="M16.7405 75.7321C19.7766 75.7321 22.2379 73.2708 22.2379 70.2347C22.2379 67.1985 19.7766 64.7372 16.7405 64.7372C13.7043 64.7372 11.243 67.1985 11.243 70.2347C11.243 73.2708 13.7043 75.7321 16.7405 75.7321Z" fill="#C51F3F"/>
<path d="M60.1162 91.6842C63.1523 91.6842 65.6136 89.2229 65.6136 86.1868C65.6136 83.1507 63.1523 80.6894 60.1162 80.6894C57.08 80.6894 54.6188 83.1507 54.6188 86.1868C54.6188 89.2229 57.08 91.6842 60.1162 91.6842Z" fill="white"/>
<path d="M98.311 60.7462C99.6238 59.2883 100.842 57.8232 101.953 56.3577C108.914 47.1722 110.94 38.9828 107.658 33.2977C104.376 27.6127 96.2712 25.2728 84.8347 26.7089C83.0111 26.9378 81.1338 27.2603 79.2155 27.668C78.6221 25.8434 77.976 24.0955 77.2793 22.4333C78.9128 21.2048 79.9716 19.2509 79.9716 17.0542C79.9716 13.3449 76.9537 10.3271 73.2445 10.3271C72.199 10.3271 71.2084 10.5668 70.3247 10.9943C67.1526 7.58315 63.7201 5.8493 60.1157 5.8493C53.5511 5.8493 47.4718 11.6989 42.998 22.3204C42.2843 24.0149 41.6245 25.8026 41.0182 27.6685C39.0992 27.2605 37.2215 26.9381 35.3969 26.7089C23.9596 25.2728 15.8558 27.6127 12.5735 33.2977C9.29124 38.9828 11.3175 47.1722 18.279 56.3577C19.3899 57.8235 20.6085 59.2892 21.9218 60.7476C20.9562 61.8192 20.0431 62.8944 19.1862 63.9702C18.4273 63.6728 17.6027 63.5075 16.7394 63.5075C13.0302 63.5075 10.0123 66.5252 10.0123 70.2346C10.0123 72.2931 10.9427 74.1376 12.4038 75.3725C10.5517 80.3596 10.6038 84.784 12.573 88.1946C15.1585 92.6726 20.7317 95.0919 28.6904 95.191C28.8619 95.193 29.0335 95.1942 29.2069 95.1942C32.8145 95.1942 36.7884 94.7281 41.0182 93.8256C41.6242 95.691 42.2838 97.478 42.9973 99.172C47.4711 109.793 53.5504 115.643 60.1149 115.643C66.6794 115.643 72.7587 109.793 77.2326 99.172C77.946 97.478 78.6056 95.691 79.2116 93.8256C83.4412 94.7281 87.4153 95.1942 91.0229 95.1939C91.1956 95.1939 91.3682 95.193 91.5394 95.1907C99.4981 95.0916 105.071 92.6724 107.657 88.1944C110.939 82.5093 108.913 74.3199 101.951 65.1344C100.842 63.6691 99.6238 62.2041 98.311 60.7462ZM85.1414 29.149C95.3812 27.8628 102.812 29.8234 105.528 34.5274C108.244 39.2314 106.227 46.6469 99.9927 54.8722C98.964 56.2296 97.8408 57.5874 96.6308 58.9398C92.8129 54.96 88.2962 51.0592 83.2575 47.3884C82.5989 41.1832 81.4809 35.3215 79.9423 30.026C81.7167 29.6547 83.4528 29.361 85.1414 29.149ZM53.5211 87.5131C49.7846 88.9314 46.1566 90.0716 42.6953 90.9196C41.3569 86.3439 40.3397 81.3219 39.6727 76.0117C42.391 77.8803 45.2405 79.6803 48.1986 81.3881C49.99 82.4225 51.8183 83.4173 53.6441 84.3578C53.4793 84.9399 53.3893 85.5528 53.3893 86.1868C53.3891 86.6408 53.4351 87.084 53.5211 87.5131ZM60.1162 81.9191C62.4693 81.9191 64.3836 83.8334 64.3836 86.1868C64.3836 88.5399 62.4693 90.4545 60.1162 90.4545C57.763 90.4545 55.8487 88.5399 55.8487 86.1868C55.8484 83.8334 57.763 81.9191 60.1162 81.9191ZM66.5884 84.358C68.4106 83.4193 70.2396 82.4237 72.0337 81.3878C74.9918 79.6801 77.8413 77.88 80.5596 76.0114C79.8926 81.3212 78.8757 86.3427 77.5375 90.9181C74.076 90.0706 70.4479 88.9312 66.7112 87.5129C66.7973 87.084 66.843 86.6405 66.843 86.1865C66.843 85.5528 66.753 84.9399 66.5884 84.358ZM70.804 79.258C69.0552 80.2678 67.2726 81.2383 65.4967 82.1539C64.2683 80.5192 62.3138 79.4597 60.1162 79.4597C57.9187 79.4597 55.964 80.5192 54.7358 82.1537C52.9567 81.2363 51.1749 80.2664 49.4283 79.258C45.8809 77.2099 42.4941 75.0299 39.3117 72.7574C38.9349 68.8653 38.7404 64.8422 38.7404 60.7459C38.7404 56.6511 38.9349 52.6293 39.3114 48.7383C42.498 46.4617 45.8856 44.2793 49.4283 42.2341C52.9756 40.1859 56.557 38.3431 60.1162 36.7231C63.6753 38.3431 67.2567 40.1859 70.804 42.2341C74.3529 44.283 77.7404 46.4639 80.9238 48.7371C81.2989 52.6244 81.4919 56.6459 81.4919 60.7462C81.4919 64.8425 81.2971 68.8653 80.9206 72.7577C77.7382 75.0299 74.3514 77.2101 70.804 79.258ZM36.6743 70.818C32.4097 67.5857 28.5697 64.1947 25.2766 60.7481C28.5709 57.3026 32.4132 53.9099 36.674 50.6788C36.415 53.966 36.281 57.3318 36.281 60.7459C36.281 64.162 36.415 67.5293 36.6743 70.818ZM39.6725 45.4826C40.3394 40.1714 41.3566 35.1487 42.6953 30.5725C47.3272 31.7011 52.185 33.3314 57.1177 35.4091C54.1401 36.8289 51.1567 38.3965 48.1986 40.1045C45.2439 41.8101 42.3937 43.6108 39.6725 45.4826ZM63.1144 35.4091C68.0478 33.3309 72.9068 31.7006 77.5397 30.5718C78.8793 35.1467 79.8956 40.168 80.5618 45.4824C77.8427 43.613 74.9926 41.8125 72.0337 40.1043C69.0756 38.3965 66.0922 36.8289 63.1144 35.4091ZM83.5598 50.6756C87.8245 53.9082 91.6646 57.2994 94.9577 60.7462C91.6641 64.1932 87.8235 67.5852 83.558 70.818C83.8172 67.5293 83.9513 64.162 83.9513 60.7462C83.9513 57.3274 83.8177 53.961 83.5598 50.6756ZM77.5124 17.0542C77.5124 19.4073 75.5981 21.3219 73.2447 21.3219C70.8916 21.3219 68.977 19.4075 68.977 17.0542C68.977 14.701 70.8916 12.7864 73.2447 12.7864C75.5981 12.7864 77.5124 14.701 77.5124 17.0542ZM45.2648 23.2751C49.2711 13.7638 54.6844 8.30867 60.1162 8.30867C62.941 8.30867 65.7028 9.70657 68.3343 12.463C67.2087 13.6661 66.5176 15.2805 66.5176 17.0542C66.5176 20.7634 69.5352 23.7812 73.2447 23.7812C73.878 23.7812 74.4904 23.6912 75.072 23.5269C75.694 25.0213 76.2727 26.5891 76.8091 28.2204C71.4528 29.5371 65.8152 31.4987 60.1159 34.0274C54.4168 31.4985 48.7792 29.5371 43.4232 28.2204C43.9894 26.4964 44.6037 24.8447 45.2648 23.2751ZM20.2396 54.8722C14.0056 46.6471 11.9879 39.2317 14.7038 34.5274C17.4197 29.8232 24.8497 27.8635 35.0909 29.149C36.7807 29.3613 38.5183 29.6552 40.2944 30.0268C38.7561 35.3252 37.6359 41.1901 36.9765 47.3918C31.9437 51.0602 27.4219 54.9622 23.6028 58.9408C22.3925 57.5881 21.2688 56.2298 20.2396 54.8722ZM16.7404 65.9669C19.0935 65.9669 21.0081 67.8813 21.0081 70.2346C21.0081 72.5877 19.0938 74.5024 16.7404 74.5024C14.3873 74.5024 12.4727 72.5877 12.4727 70.2346C12.4727 67.8813 14.387 65.9669 16.7404 65.9669ZM28.7222 92.7319C19.824 92.6212 16.1878 89.5347 14.7041 86.9649C13.1596 84.2901 13.1183 80.7209 14.5715 76.6007C15.2525 76.8333 15.9817 76.9615 16.7406 76.9615C20.4499 76.9615 23.4677 73.9436 23.4677 70.2344C23.4677 68.2765 22.6264 66.5117 21.2868 65.2812C22.0179 64.3715 22.7919 63.462 23.6042 62.5548C27.4221 66.5343 31.9388 70.4348 36.9775 74.1052C37.6371 80.306 38.7573 86.1696 40.2954 91.467C36.1253 92.3445 32.2292 92.7764 28.7222 92.7319ZM74.9675 98.2172C70.9612 107.729 65.5479 113.184 60.1162 113.184C54.6844 113.184 49.2711 107.729 45.2648 98.2172C44.6035 96.6474 43.9891 94.9955 43.423 93.2712C46.9568 92.3994 50.6491 91.2359 54.4424 89.7939C55.6379 91.6675 57.7335 92.9136 60.1159 92.9136C62.4985 92.9136 64.5942 91.6675 65.7896 89.7939C69.583 91.2359 73.2752 92.3994 76.8091 93.2712C76.2429 94.9955 75.6286 96.6474 74.9675 98.2172ZM105.528 86.9649C102.84 91.6207 96.4215 92.6706 91.5101 92.7319C88.0036 92.7744 84.1075 92.3426 79.9376 91.4661C81.4755 86.1691 82.5954 80.306 83.255 74.1057C88.2945 70.4346 92.8121 66.533 96.6305 62.5528C97.8405 63.9052 98.9637 65.263 99.9925 66.6204C106.226 74.8454 108.244 82.2607 105.528 86.9649Z" fill="#C51F3F" fill-opacity="0.3"/>
<path d="M29.5633 44.3353C28.884 44.3353 28.3336 43.7847 28.3336 43.1057C28.3336 42.2919 27.6718 41.6301 26.858 41.6301C26.1787 41.6301 25.6283 41.0794 25.6283 40.4004C25.6283 39.7213 26.1787 39.1707 26.858 39.1707C27.6718 39.1707 28.3336 38.5089 28.3336 37.6951C28.3336 37.016 28.884 36.4654 29.5633 36.4654C30.2425 36.4654 30.793 37.016 30.793 37.6951C30.793 38.5089 31.4548 39.1707 32.2686 39.1707C32.9478 39.1707 33.4983 39.7213 33.4983 40.4004C33.4983 41.0794 32.9478 41.6301 32.2686 41.6301C31.4548 41.6301 30.793 42.2919 30.793 43.1057C30.793 43.7847 30.2425 44.3353 29.5633 44.3353Z" fill="#C51F3F" fill-opacity="0.6"/>
<path d="M34.8372 110.451C34.1579 110.451 33.6075 109.9 33.6075 109.221C33.6075 108.408 32.9457 107.746 32.1319 107.746C31.4526 107.746 30.9022 107.195 30.9022 106.516C30.9022 105.837 31.4526 105.286 32.1319 105.286C32.9457 105.286 33.6075 104.625 33.6075 103.811C33.6075 103.132 34.1579 102.581 34.8372 102.581C35.5165 102.581 36.0669 103.132 36.0669 103.811C36.0669 104.625 36.7287 105.286 37.5425 105.286C38.2218 105.286 38.7722 105.837 38.7722 106.516C38.7722 107.195 38.2218 107.746 37.5425 107.746C36.7287 107.746 36.0669 108.408 36.0669 109.221C36.0669 109.9 35.5165 110.451 34.8372 110.451Z" fill="#C51F3F" fill-opacity="0.5"/>
<path d="M109.265 67.9774C108.586 67.9774 108.035 67.4268 108.035 66.7478C108.035 65.934 107.374 65.2721 106.56 65.2721C105.88 65.2721 105.33 64.7215 105.33 64.0425C105.33 63.3634 105.88 62.8128 106.56 62.8128C107.374 62.8128 108.035 62.151 108.035 61.3372C108.035 60.6581 108.586 60.1075 109.265 60.1075C109.944 60.1075 110.495 60.6581 110.495 61.3372C110.495 62.151 111.157 62.8128 111.97 62.8128C112.65 62.8128 113.2 63.3634 113.2 64.0425C113.2 64.7215 112.65 65.2721 111.97 65.2721C111.157 65.2721 110.495 65.934 110.495 66.7478C110.495 67.427 109.944 67.9774 109.265 67.9774Z" fill="#C51F3F"/>
<path d="M57.7722 56.679C55.8827 55.8952 53.7687 56.4365 52.4833 57.8757C52.3481 59.7919 53.4397 61.6647 55.3292 62.4485C57.2175 63.2319 59.3319 62.6894 60.6174 61.2502C60.7527 59.334 59.6604 57.4624 57.7722 56.679Z" fill="#C51F3F" fill-opacity="0.5"/>
<path d="M63.0109 58.0016C64.571 57.3478 66.3163 57.7993 67.3777 58.9997C67.4893 60.5981 66.588 62.1601 65.028 62.814C63.469 63.4674 61.7231 63.0148 60.6617 61.8145C60.5502 60.2161 61.452 58.655 63.0109 58.0016Z" fill="#C51F3F" fill-opacity="0.8"/>
<path d="M59.9605 60.4075L59.9607 65.665H61.2879L61.2906 60.4075C61.2906 60.4075 61.3536 59.7002 60.6271 59.7002C59.9007 59.7002 59.9605 60.4075 59.9605 60.4075V60.4075Z" fill="#C51F3F"/>
<defs>
<linearGradient id="paint0_linear_610_63780" x1="0.11611" y1="62.9596" x2="120.116" y2="62.9596" gradientUnits="userSpaceOnUse">
<stop offset="0.0485" stop-color="#FFDBED"/>
<stop offset="0.9993" stop-color="#D2DEFF"/>
</linearGradient>
</defs>
</svg>
