<svg width="112" height="120" viewBox="0 0 112 120" fill="none" xmlns="http://www.w3.org/2000/svg">
<path d="M108.837 9.27982C102.653 -2.95713 86.3782 -2.16073 77.1989 6.25497C72.7055 10.3746 64.7229 7.56958 59.333 8.06201C51.4135 8.78552 47.1811 16.7641 39.375 18.2817C-37.0926 33.1479 9.88902 149.466 77.8554 112.937C93.9185 104.304 86.1633 82.9619 89.2686 68.2319C93.5009 48.1561 120.163 31.6936 108.837 9.27982Z" fill="url(#paint0_linear_14113_5705)"/>
<path d="M54.0154 15.6165V95.8172C54.0154 104.742 46.7803 111.977 37.8553 111.977C28.9303 111.977 21.6951 104.742 21.6951 95.8172V15.6165H54.0154Z" fill="#FFE8DC"/>
<path d="M21.6951 15.6165H54.0154V26.0227H21.6951V15.6165Z" fill="#FFD6BB"/>
<path d="M54.0155 15.6165V61.1532C47.8139 59.3579 42.2733 55.254 38.7905 49.2211C32.1811 37.7766 35.296 23.386 45.5733 15.6165H54.0155Z" fill="#FFD6BB"/>
<path d="M54.0152 65.1926C51.8618 67.0945 49.0343 68.2507 45.9354 68.2507C42.8365 68.2507 40.009 67.0943 37.8555 65.1926C35.7021 63.2909 32.8746 62.1345 29.7757 62.1345C26.6768 62.1345 23.8493 63.2909 21.6959 65.1926V95.8172C21.6959 104.742 28.9308 111.977 37.8555 111.977C46.7803 111.977 54.0152 104.742 54.0152 95.8172V65.1926Z" fill="#FF9D33"/>
<path d="M21.696 65.1926C23.8495 67.0945 26.6769 68.2507 29.7759 68.2507C32.8748 68.2507 35.7023 67.0943 37.8557 65.1926C40.0091 63.2909 42.8366 62.1345 45.9355 62.1345C49.0345 62.1345 51.862 63.2909 54.0154 65.1926V95.8172C54.0154 104.742 46.7805 111.977 37.8557 111.977C28.9309 111.977 21.696 104.742 21.696 95.8172V65.1926Z" fill="#FFC599"/>
<path d="M55.9117 20.3967H19.7995C18.4466 20.3967 17.35 19.3001 17.35 17.9473V14.1469C17.35 12.7941 18.4466 11.6974 19.7995 11.6974H55.9117C57.2645 11.6974 58.3612 12.7941 58.3612 14.1469V17.9475C58.3612 19.3003 57.2645 20.3967 55.9117 20.3967Z" fill="white"/>
<path d="M71.0097 53.5511L76.1828 50.5643L82.428 61.3811L77.255 64.3679L71.0097 53.5511Z" fill="#D9D9FF"/>
<path d="M78.886 55.2434C77.4844 56.5442 75.9165 57.7113 74.1891 58.7074C74.1376 58.7356 74.0884 58.766 74.0368 58.7942L71.011 53.5512L76.186 50.5652L78.886 55.2434Z" fill="#B3B3FF"/>
<path d="M61.2321 56.554C75.5441 56.554 87.1462 44.9518 87.1462 30.6398C87.1462 16.3279 75.5441 4.72571 61.2321 4.72571C46.9201 4.72571 35.3179 16.3279 35.3179 30.6398C35.3179 44.9518 46.9201 56.554 61.2321 56.554Z" fill="#9494FF"/>
<path d="M71.9006 49.1156C67.6327 51.5812 62.8655 52.4015 58.3327 51.7758L47.2678 14.5078C48.2733 13.6383 49.3725 12.8531 50.5655 12.164C60.7678 6.27186 73.8178 9.76874 79.7077 19.9734C85.5999 30.1758 82.103 43.2258 71.9006 49.1156Z" fill="#D9D9FF"/>
<path d="M58.3327 18.6961V51.7758C52.0303 50.9086 46.1827 47.2406 42.7561 41.3063C38.5397 34.0055 39.1303 25.2445 43.5507 18.6961H58.3327Z" fill="#FFE8DC"/>
<path d="M58.3327 18.6961V29.4281H39.9296C40.1499 25.6102 41.3944 21.8906 43.5507 18.6961H58.3327Z" fill="#FFD6BB"/>
<path d="M62.9757 17.1258V21.1875C62.9757 22.6312 61.8038 23.8031 60.3577 23.8031H41.0241C42.2171 20.2711 44.3335 17.0414 47.2679 14.5078H60.3577C61.8038 14.5078 62.9757 15.6797 62.9757 17.1258Z" fill="white"/>
<path d="M93.3435 76.2234L89.7756 79.3493L84.6529 81.2416L75.7232 65.7752C75.0318 64.5799 75.442 63.0494 76.6373 62.3604L80.999 59.8432C82.1943 59.1518 83.7248 59.5619 84.4138 60.7572L93.3435 76.2234Z" fill="#FFAB66"/>
<path d="M97.2412 82.9734L93.3436 86.3709L88.5506 87.989L86.8279 85.0078L90.5308 81.2414L95.5186 79.9898L97.2412 82.9734Z" fill="#FFAB66"/>
<path d="M84.6507 81.2399L93.3414 76.2222L95.516 79.9887L86.8253 85.0064L84.6507 81.2399Z" fill="#FFD6BB"/>
<path d="M88.5492 87.9903L91.8028 93.6256C92.4933 94.8213 94.0223 95.231 95.2181 94.5406L99.5789 92.0229C100.775 91.3324 101.184 89.8034 100.494 88.6076L97.2403 82.9723L88.5492 87.9903Z" fill="#FFD6BB"/>
<path d="M30.8748 96.4683H28.3991C27.7517 96.4683 27.2272 95.9435 27.2272 95.2964C27.2272 94.6493 27.7517 94.1245 28.3991 94.1245H30.8748C31.5221 94.1245 32.0467 94.6493 32.0467 95.2964C32.0467 95.9435 31.5221 96.4683 30.8748 96.4683Z" fill="#8383FF"/>
<path d="M30.8748 87.3968H28.3991C27.7517 87.3968 27.2272 86.872 27.2272 86.2249C27.2272 85.5778 27.7517 85.053 28.3991 85.053H30.8748C31.5221 85.053 32.0467 85.5778 32.0467 86.2249C32.0467 86.872 31.5221 87.3968 30.8748 87.3968Z" fill="#8383FF"/>
<path d="M30.8748 78.3253H28.3991C27.7517 78.3253 27.2272 77.8006 27.2272 77.1534C27.2272 76.5063 27.7517 75.9816 28.3991 75.9816H30.8748C31.5221 75.9816 32.0467 76.5063 32.0467 77.1534C32.0467 77.8006 31.5221 78.3253 30.8748 78.3253Z" fill="#8383FF"/>
<path d="M30.8748 69.2538H28.3991C27.7517 69.2538 27.2272 68.7291 27.2272 68.082C27.2272 67.4349 27.7517 66.9101 28.3991 66.9101H30.8748C31.5221 66.9101 32.0467 67.4349 32.0467 68.082C32.0467 68.7291 31.5221 69.2538 30.8748 69.2538Z" fill="#8383FF"/>
<path d="M30.8748 60.1823H28.3991C27.7517 60.1823 27.2272 59.6575 27.2272 59.0104C27.2272 58.3633 27.7517 57.8386 28.3991 57.8386H30.8748C31.5221 57.8386 32.0467 58.3633 32.0467 59.0104C32.0467 59.6575 31.5221 60.1823 30.8748 60.1823Z" fill="#8383FF"/>
<path d="M30.8748 51.1108H28.3991C27.7517 51.1108 27.2272 50.5861 27.2272 49.939C27.2272 49.2919 27.7517 48.7671 28.3991 48.7671H30.8748C31.5221 48.7671 32.0467 49.2919 32.0467 49.939C32.0467 50.5861 31.5221 51.1108 30.8748 51.1108Z" fill="#8383FF"/>
<path d="M30.8748 42.0394H28.399C27.7517 42.0394 27.2272 41.5146 27.2272 40.8675C27.2272 40.2204 27.7517 39.6956 28.399 39.6956H30.8748C31.5221 39.6956 32.0466 40.2204 32.0466 40.8675C32.0466 41.5146 31.5221 42.0394 30.8748 42.0394Z" fill="#8383FF"/>
<path d="M66.0764 79.7473H61.721C61.0737 79.7473 60.5491 79.2225 60.5491 78.5754C60.5491 77.9283 61.0737 77.4035 61.721 77.4035H66.0764C66.7237 77.4035 67.2483 77.9283 67.2483 78.5754C67.2483 79.2225 66.7235 79.7473 66.0764 79.7473Z" fill="#FF9D33"/>
<path d="M75.4514 84.5243H61.721C61.0736 84.5243 60.5491 83.9995 60.5491 83.3524C60.5491 82.7053 61.0736 82.1805 61.721 82.1805H75.4514C76.0987 82.1805 76.6232 82.7053 76.6232 83.3524C76.6232 83.9995 76.0985 84.5243 75.4514 84.5243Z" fill="#FF9D33"/>
<path d="M75.4514 89.3011H61.721C61.0736 89.3011 60.5491 88.7763 60.5491 88.1292C60.5491 87.4821 61.0736 86.9573 61.721 86.9573H75.4514C76.0987 86.9573 76.6232 87.4821 76.6232 88.1292C76.6232 88.7763 76.0985 89.3011 75.4514 89.3011Z" fill="#FF9D33"/>
<path d="M76.1345 29.5831H66.6229C65.9758 29.5831 65.451 29.0583 65.451 28.4112C65.451 27.7641 65.9758 27.2393 66.6229 27.2393H76.1345C76.7816 27.2393 77.3064 27.7641 77.3064 28.4112C77.3064 29.0583 76.7816 29.5831 76.1345 29.5831Z" fill="#FFAB66"/>
<path d="M62.4041 29.5831C63.0513 29.5831 63.576 29.0584 63.576 28.4112C63.576 27.764 63.0513 27.2393 62.4041 27.2393C61.7569 27.2393 61.2322 27.764 61.2322 28.4112C61.2322 29.0584 61.7569 29.5831 62.4041 29.5831Z" fill="#FF6C6C"/>
<path d="M62.4041 34.3601C63.0514 34.3601 63.576 33.8354 63.576 33.1882C63.576 32.541 63.0514 32.0164 62.4041 32.0164C61.7569 32.0164 61.2323 32.541 61.2323 33.1882C61.2323 33.8354 61.7569 34.3601 62.4041 34.3601Z" fill="#FF6C6C"/>
<path d="M71.447 34.3601H66.6229C65.9758 34.3601 65.451 33.8353 65.451 33.1882C65.451 32.5411 65.9758 32.0164 66.6229 32.0164H71.447C72.0941 32.0164 72.6189 32.5411 72.6189 33.1882C72.6189 33.8353 72.0941 34.3601 71.447 34.3601Z" fill="#FFAB66"/>
<path d="M11.524 105.507C10.8767 105.507 10.3521 104.983 10.3521 104.336C10.3521 103.517 9.68605 102.851 8.86761 102.851C8.22027 102.851 7.69574 102.326 7.69574 101.679C7.69574 101.032 8.22027 100.507 8.86761 100.507C9.68605 100.507 10.3521 99.8416 10.3521 99.0232C10.3521 98.3761 10.8767 97.8513 11.524 97.8513C12.1714 97.8513 12.6959 98.3761 12.6959 99.0232C12.6959 99.8416 13.3618 100.507 14.1802 100.507C14.8275 100.507 15.3521 101.032 15.3521 101.679C15.3521 102.326 14.8275 102.851 14.1802 102.851C13.3618 102.851 12.6959 103.517 12.6959 104.336C12.6959 104.983 12.1711 105.507 11.524 105.507Z" fill="#FFAB66"/>
<path d="M100.009 67.8026C99.3612 67.8026 98.8367 67.2778 98.8367 66.6307C98.8367 65.8123 98.1708 65.1464 97.3524 65.1464C96.705 65.1464 96.1805 64.6216 96.1805 63.9745C96.1805 63.3274 96.705 62.8027 97.3524 62.8027C98.1708 62.8027 98.8367 62.1368 98.8367 61.3184C98.8367 60.6712 99.3612 60.1465 100.009 60.1465C100.656 60.1465 101.18 60.6712 101.18 61.3184C101.18 62.1368 101.846 62.8027 102.665 62.8027C103.312 62.8027 103.837 63.3274 103.837 63.9745C103.837 64.6216 103.312 65.1464 102.665 65.1464C101.846 65.1464 101.18 65.8123 101.18 66.6307C101.18 67.2778 100.656 67.8026 100.009 67.8026Z" fill="#FF6C6C"/>
<path d="M90.0859 17.3142C89.4385 17.3142 88.914 16.7895 88.914 16.1424C88.914 15.3239 88.2481 14.6581 87.4297 14.6581C86.7823 14.6581 86.2578 14.1333 86.2578 13.4862C86.2578 12.8391 86.7823 12.3143 87.4297 12.3143C88.2481 12.3143 88.914 11.6485 88.914 10.83C88.914 10.1829 89.4385 9.65814 90.0859 9.65814C90.7332 9.65814 91.2577 10.1829 91.2577 10.83C91.2577 11.6485 91.9238 12.3143 92.7423 12.3143C93.3896 12.3143 93.9141 12.8391 93.9141 13.4862C93.9141 14.1333 93.3896 14.6581 92.7423 14.6581C91.9238 14.6581 91.2577 15.3239 91.2577 16.1424C91.2577 16.7895 90.7332 17.3142 90.0859 17.3142Z" fill="#FF6C6C"/>
<path d="M96.7988 56.9063C96.499 56.9063 96.1988 56.7919 95.9703 56.5631L94.6894 55.2825L93.4085 56.5631C92.9513 57.0206 92.2088 57.0206 91.7515 56.5631C91.2938 56.1054 91.2938 55.3634 91.7515 54.9059L93.8609 52.7965C94.3181 52.339 95.0606 52.339 95.5179 52.7965L97.6273 54.9059C98.085 55.3636 98.085 56.1056 97.6273 56.5631C97.3985 56.7919 97.0985 56.9063 96.7988 56.9063Z" fill="#8383FF"/>
<path d="M15.7454 70.3085C15.4457 70.3085 15.1454 70.1942 14.9169 69.9654L13.6361 68.6848L12.3552 69.9654C11.8979 70.4229 11.1554 70.4229 10.6982 69.9654C10.2404 69.5077 10.2404 68.7657 10.6982 68.3082L12.8075 66.1988C13.2648 65.7413 14.0073 65.7413 14.4646 66.1988L16.5739 68.3082C17.0317 68.7659 17.0317 69.5079 16.5739 69.9654C16.3454 70.1942 16.0454 70.3085 15.7454 70.3085Z" fill="#8383FF"/>
<path d="M100.494 88.6078L84.4141 60.757C83.804 59.7002 82.5391 59.2589 81.4279 59.6467L76.6896 51.4396C87.1249 43.7043 90.3253 29.2024 83.6744 17.6828C76.5185 5.28838 60.6696 1.04151 48.2751 8.19768C46.5325 9.20385 44.951 10.3816 43.5396 11.6976H19.7995C18.4467 11.6976 17.35 12.7942 17.35 14.1471V17.9477C17.35 19.3005 18.4467 20.3971 19.7995 20.3971H21.6951V95.8171C21.6951 104.742 28.9303 111.977 37.8553 111.977C46.7803 111.977 54.0154 104.742 54.0154 95.8171V55.5278C59.6557 57.1626 65.8401 56.8886 71.5162 54.4263L76.2546 62.6334C75.363 63.4019 75.1127 64.7179 75.723 65.7747L91.8028 93.6255C92.4932 94.8213 94.0221 95.231 95.2181 94.5405L99.5789 92.0228C100.774 91.3326 101.184 89.8035 100.494 88.6078Z" fill="url(#paint1_linear_14113_5705)"/>
<defs>
<linearGradient id="paint0_linear_14113_5705" x1="17.8941" y1="105.611" x2="103.805" y2="3.22592" gradientUnits="userSpaceOnUse">
<stop stop-color="white" stop-opacity="0"/>
<stop offset="0.2532" stop-color="#EEEEFF" stop-opacity="0.403"/>
<stop offset="0.629" stop-color="#D9D9FF"/>
</linearGradient>
<linearGradient id="paint1_linear_14113_5705" x1="59.0896" y1="111.977" x2="59.0896" y2="4.72143" gradientUnits="userSpaceOnUse">
<stop stop-color="#FF4D4D" stop-opacity="0.4"/>
<stop offset="0.1463" stop-color="#FF4D4D" stop-opacity="0.342"/>
<stop offset="1" stop-color="#FF4D4D" stop-opacity="0"/>
</linearGradient>
</defs>
</svg>
