<svg width="109" height="120" viewBox="0 0 109 120" fill="none" xmlns="http://www.w3.org/2000/svg">
<path d="M97.7942 89.0437C92.0069 69.5028 71.8096 49.7964 85.7276 28.5197C88.39 24.4496 88.1001 17.6392 85.8865 14.761C71.9764 -3.32517 41.2544 15.3236 41.4717 37.198C41.6148 51.5815 30.9823 60.5855 21.6117 69.8958C-28.2398 112.675 114.221 147.599 97.7942 89.0437Z" fill="url(#paint0_linear_14113_5783)"/>
<path d="M99.4661 96.9319H10.6295C9.49304 96.9319 8.5715 96.0106 8.5715 94.8739V43.1528C8.5715 42.016 9.49282 41.0947 10.6295 41.0947H99.4659C100.603 41.0947 101.524 42.016 101.524 43.1528V94.8739C101.524 96.0106 100.603 96.9319 99.4661 96.9319Z" fill="#FFAB66"/>
<path d="M101.525 89.1473V94.8747C101.525 96.011 100.602 96.9319 99.4653 96.9319H95.151L84.718 78.8593C84.1444 77.8681 84.3795 76.6352 85.2169 75.9143L80.7729 68.2176C69.5971 73.0659 56.3202 68.8659 50.0828 58.0637C46.9993 52.723 46.1729 46.6967 47.3092 41.0945H94.9532C96.7883 50.167 93.285 59.7384 85.6235 65.4176L90.0674 73.1143C91.1092 72.7494 92.296 73.1626 92.8674 74.1538L101.525 89.1473Z" fill="#FF9D33"/>
<path d="M8.57153 46.8819H101.524V84.6217H8.57153V46.8819Z" fill="#FFC599"/>
<path d="M55.0476 88.5844H92.6101C93.7466 88.5844 94.6681 87.6631 94.6681 86.5264V76.4257H55.0476V88.5844Z" fill="#9494FF"/>
<path d="M94.6675 76.4264V86.5275C94.6675 87.6637 93.7466 88.5846 92.6103 88.5846H90.3334L84.718 78.8593C84.2653 78.0747 84.3158 77.1406 84.773 76.4264H94.6675Z" fill="#8383FF"/>
<path d="M55.0476 88.5844H17.5212C16.3845 88.5844 15.4631 87.6631 15.4631 86.5264V76.4257H55.0474V88.5844H55.0476Z" fill="#9494FF"/>
<path d="M94.6674 76.4264V85.9736C94.6674 84.8374 93.7487 83.9143 92.6103 83.9143H65.3377C61.7289 83.9143 58.5531 85.7736 56.7157 88.5846H55.0476V76.4264H94.6674Z" fill="#8383FF"/>
<path d="M55.0476 76.4264V88.5846H53.3795C51.5421 85.7736 48.3663 83.9143 44.7575 83.9143H17.485C16.4762 83.9143 15.6388 84.6396 15.463 85.5978V76.4264H55.0476Z" fill="#8383FF"/>
<path d="M55.0476 44.0292V88.0453C55.0476 88.2326 55.023 88.4137 54.9755 88.5844C54.3705 83.4785 50.0261 79.5189 44.7577 79.5189H17.4854C16.3474 79.5189 15.4274 80.4409 15.4274 81.577V35.7971C15.4274 34.6611 16.3474 33.7391 17.4854 33.7391H44.7577C50.4397 33.7393 55.0476 38.347 55.0476 44.0292Z" fill="white"/>
<path d="M55.0476 44.0285V64.1406C53.1224 62.4439 51.4366 60.4088 50.0828 58.0637C45.8147 50.6681 45.8718 41.9648 49.4718 34.8813C52.7839 36.5911 55.0476 40.0461 55.0476 44.0285Z" fill="#D9D9FF"/>
<path d="M94.6674 35.7977V81.578C94.6674 80.4417 93.7487 79.5187 92.6103 79.5187H65.3377C60.0696 79.5187 55.7245 83.4791 55.1201 88.5846C55.0718 88.4132 55.0476 88.233 55.0476 88.0462V44.0285C55.0476 38.3472 59.6564 33.7384 65.3377 33.7384H92.6103C93.7487 33.7384 94.6674 34.6615 94.6674 35.7977Z" fill="#D9D9FF"/>
<path d="M85.6235 65.4176L90.0674 73.1143C91.1092 72.7494 92.296 73.1626 92.8674 74.1538L94.6674 77.2703V81.578C94.6674 80.4417 93.7487 79.5187 92.6103 79.5187H85.0982L84.718 78.8593C84.1443 77.8681 84.3795 76.6352 85.2169 75.9143L80.7729 68.2176C72.0235 72.0132 61.9861 70.2637 55.0476 64.1406V44.0285C55.0476 38.3472 59.6564 33.7384 65.3377 33.7384H92.6103C93.7487 33.7384 94.6674 34.6615 94.6674 35.7977V51.945C93.318 57.2044 90.2191 62.011 85.6235 65.4176Z" fill="#B3B3FF"/>
<path d="M57.1789 99.0079H52.9167C51.7802 99.0079 50.8586 98.0866 50.8586 96.9499V88.5846H59.2367V96.9501C59.2369 98.0866 58.3156 99.0079 57.1789 99.0079Z" fill="#FFE8DC"/>
<path d="M80.2974 62.1227L85.1484 59.3219L91.0047 69.4652L86.1538 72.2659L80.2974 62.1227Z" fill="white"/>
<path d="M87.6834 63.7097C86.3691 64.9294 84.8987 66.0239 83.279 66.958C83.2306 66.9844 83.1845 67.013 83.1361 67.0393L80.2987 62.1228L85.1515 59.3228L87.6834 63.7097Z" fill="#D9D9FF"/>
<path d="M71.1286 64.9384C84.5494 64.9384 95.4291 54.0587 95.4291 40.638C95.4291 27.2172 84.5494 16.3375 71.1286 16.3375C57.7078 16.3375 46.8281 27.2172 46.8281 40.638C46.8281 54.0587 57.7078 64.9384 71.1286 64.9384Z" fill="#9494FF"/>
<path d="M88.4543 30.6351C88.595 30.8791 88.729 31.123 88.8565 31.3692L53.3356 49.7868C48.4784 40.3538 51.8411 28.6747 61.1246 23.312C70.6939 17.7867 82.929 21.0659 88.4543 30.6351Z" fill="#D9D9FF"/>
<path d="M107.088 98.1989L102.998 100.56C101.877 101.207 100.443 100.823 99.7957 99.7018L84.7172 73.5852C84.0697 72.4639 84.4539 71.0301 85.5755 70.3826L89.6647 68.0217C90.786 67.3743 92.2199 67.7584 92.8673 68.8798L107.946 94.9963C108.593 96.1176 108.209 97.5514 107.088 98.1989Z" fill="#FFAB66"/>
<path d="M93.0888 88.0871L101.238 83.3818L103.278 86.9137L95.1281 91.619L93.0888 88.0871Z" fill="#FFD6BB"/>
<path d="M96.7448 94.4171L99.7958 99.7015C100.443 100.823 101.877 101.207 102.998 100.56L107.088 98.1987C108.209 97.5512 108.593 96.1174 107.946 94.996L104.895 89.7116L96.7448 94.4171Z" fill="#FFD6BB"/>
<path d="M81.1312 57.9648C71.5619 63.4879 59.3268 60.211 53.8015 50.6417C53.6388 50.3582 53.4828 50.0725 53.3355 49.7868V42.5494C53.3355 36.3758 58.3421 31.3692 64.5158 31.3692H88.8565C93.8081 40.8219 90.4565 52.5802 81.1312 57.9648Z" fill="white"/>
<path d="M71.1377 38.2313H68.9344V36.028C68.9344 35.4212 68.4423 34.9291 67.8355 34.9291H65.6124C65.0056 34.9291 64.5135 35.4212 64.5135 36.028V38.2313H62.3102C61.7034 38.2313 61.2113 38.7234 61.2113 39.3302V41.5533C61.2113 42.1601 61.7034 42.6522 62.3102 42.6522H64.5135V44.8555C64.5135 45.4623 65.0056 45.9544 65.6124 45.9544H67.8355C68.4423 45.9544 68.9344 45.4623 68.9344 44.8555V42.6522H71.1377C71.7445 42.6522 72.2366 42.1601 72.2366 41.5533V39.3302C72.2366 38.7234 71.7445 38.2313 71.1377 38.2313Z" fill="#FF6C6C"/>
<path d="M75.1853 51.2287H62.3099C61.7031 51.2287 61.211 50.7367 61.211 50.1298C61.211 49.523 61.7031 49.0309 62.3099 49.0309H75.1853C75.7921 49.0309 76.2842 49.523 76.2842 50.1298C76.2842 50.7367 75.7921 51.2287 75.1853 51.2287Z" fill="#FFAB66"/>
<path d="M75.1854 55.7083H62.31C61.7031 55.7083 61.2111 55.2162 61.2111 54.6094C61.2111 54.0026 61.7031 53.5105 62.31 53.5105H75.1854C75.7922 53.5105 76.2843 54.0026 76.2843 54.6094C76.2843 55.2162 75.7922 55.7083 75.1854 55.7083Z" fill="#FFAB66"/>
<path d="M27.4308 41.4542H23.3466C22.7398 41.4542 22.2477 40.9622 22.2477 40.3553C22.2477 39.7485 22.7398 39.2564 23.3466 39.2564H27.4308C28.0376 39.2564 28.5297 39.7485 28.5297 40.3553C28.5297 40.9622 28.0379 41.4542 27.4308 41.4542Z" fill="#FF6C6C"/>
<path d="M38.4198 45.9336H23.3466C22.7398 45.9336 22.2477 45.4415 22.2477 44.8347C22.2477 44.2279 22.7398 43.7358 23.3466 43.7358H38.4198C39.0266 43.7358 39.5187 44.2279 39.5187 44.8347C39.5187 45.4415 39.0268 45.9336 38.4198 45.9336Z" fill="#FFAB66"/>
<path d="M38.4197 50.4131H23.3465C22.7397 50.4131 22.2476 49.921 22.2476 49.3142C22.2476 48.7074 22.7397 48.2153 23.3465 48.2153H38.4197C39.0265 48.2153 39.5186 48.7074 39.5186 49.3142C39.5186 49.921 39.0268 50.4131 38.4197 50.4131Z" fill="#FFAB66"/>
<path d="M43.3911 56.8239H27.3025C26.6957 56.8239 26.2036 56.3318 26.2036 55.725C26.2036 55.1182 26.6957 54.6261 27.3025 54.6261H43.3911C43.9979 54.6261 44.49 55.1182 44.49 55.725C44.49 56.3318 43.9979 56.8239 43.3911 56.8239Z" fill="#FFAB66"/>
<path d="M23.3466 56.8239C23.9535 56.8239 24.4455 56.3319 24.4455 55.725C24.4455 55.1181 23.9535 54.6261 23.3466 54.6261C22.7397 54.6261 22.2477 55.1181 22.2477 55.725C22.2477 56.3319 22.7397 56.8239 23.3466 56.8239Z" fill="#FF6C6C"/>
<path d="M23.3465 61.3035C23.9534 61.3035 24.4454 60.8115 24.4454 60.2046C24.4454 59.5977 23.9534 59.1057 23.3465 59.1057C22.7396 59.1057 22.2476 59.5977 22.2476 60.2046C22.2476 60.8115 22.7396 61.3035 23.3465 61.3035Z" fill="#FF6C6C"/>
<path d="M43.3911 61.3035H27.3025C26.6957 61.3035 26.2036 60.8114 26.2036 60.2046C26.2036 59.5978 26.6957 59.1057 27.3025 59.1057H43.3911C43.998 59.1057 44.49 59.5978 44.49 60.2046C44.49 60.8114 43.998 61.3035 43.3911 61.3035Z" fill="#FFAB66"/>
<path d="M32.4218 73.8615H23.3466C22.7398 73.8615 22.2477 73.3694 22.2477 72.7626V67.9013C22.2477 67.2945 22.7398 66.8024 23.3466 66.8024H32.4218C33.0286 66.8024 33.5207 67.2945 33.5207 67.9013V72.7626C33.5207 73.3696 33.0286 73.8615 32.4218 73.8615Z" fill="#9494FF"/>
<path d="M43.3911 73.8615H37.3928C36.786 73.8615 36.2939 73.3694 36.2939 72.7626V67.9013C36.2939 67.2945 36.786 66.8024 37.3928 66.8024H43.3911C43.9979 66.8024 44.49 67.2945 44.49 67.9013V72.7626C44.49 73.3696 43.9981 73.8615 43.3911 73.8615Z" fill="#FF6C6C"/>
<path d="M13.4799 21.9047C12.8731 21.9047 12.381 21.4126 12.381 20.8058C12.381 20.0383 11.7566 19.4139 10.9891 19.4139C10.3823 19.4139 9.8902 18.9218 9.8902 18.315C9.8902 17.7082 10.3823 17.2161 10.9891 17.2161C11.7566 17.2161 12.381 16.5917 12.381 15.8242C12.381 15.2174 12.8731 14.7253 13.4799 14.7253C14.0867 14.7253 14.5788 15.2174 14.5788 15.8242C14.5788 16.5917 15.2032 17.2161 15.9706 17.2161C16.5775 17.2161 17.0695 17.7082 17.0695 18.315C17.0695 18.9218 16.5775 19.4139 15.9706 19.4139C15.2032 19.4139 14.5788 20.0383 14.5788 20.8058C14.5788 21.4126 14.0869 21.9047 13.4799 21.9047Z" fill="#FFAB66"/>
<path d="M37.7283 111.827C37.1215 111.827 36.6294 111.335 36.6294 110.728C36.6294 109.96 36.005 109.336 35.2375 109.336C34.6307 109.336 34.1386 108.844 34.1386 108.237C34.1386 107.63 34.6307 107.138 35.2375 107.138C36.005 107.138 36.6294 106.514 36.6294 105.746C36.6294 105.139 37.1215 104.647 37.7283 104.647C38.3351 104.647 38.8272 105.139 38.8272 105.746C38.8272 106.514 39.4516 107.138 40.2191 107.138C40.8259 107.138 41.318 107.63 41.318 108.237C41.318 108.844 40.8259 109.336 40.2191 109.336C39.4516 109.336 38.8272 109.96 38.8272 110.728C38.8272 111.335 38.3353 111.827 37.7283 111.827Z" fill="#FF6C6C"/>
<path d="M91.5135 108.237C91.2322 108.237 90.9511 108.13 90.7363 107.915L89.5355 106.714L88.3346 107.915C87.9054 108.344 87.2097 108.344 86.7805 107.915C86.3513 107.486 86.3513 106.79 86.7805 106.361L88.7585 104.383C89.1878 103.954 89.8834 103.954 90.3126 104.383L92.2906 106.361C92.7199 106.79 92.7199 107.486 92.2906 107.915C92.0759 108.13 91.7946 108.237 91.5135 108.237Z" fill="#FFAB66"/>
<path d="M95.0692 17.63C94.7879 17.63 94.5068 17.5228 94.2921 17.3083L93.0912 16.1074L91.8903 17.3083C91.4611 17.7373 90.7655 17.7373 90.3363 17.3083C89.907 16.879 89.907 16.1832 90.3363 15.7542L92.3143 13.7762C92.7435 13.3472 93.4391 13.3472 93.8684 13.7762L95.8464 15.7542C96.2756 16.1834 96.2756 16.8792 95.8464 17.3083C95.6317 17.5228 95.3506 17.63 95.0692 17.63Z" fill="#FFAB66"/>
<path d="M107.946 94.9963L101.524 83.8734V43.1525C101.524 42.0158 100.603 41.0944 99.4661 41.0944H95.4279C95.5123 36.8171 94.4688 32.4628 92.1736 28.4876C85.4633 16.865 70.6013 12.8825 58.9786 19.5931C51.0485 24.1716 46.6769 32.5448 46.8298 41.0947H10.6296C9.49285 41.0947 8.57153 42.016 8.57153 43.1527V94.8738C8.57153 96.0105 9.49285 96.9319 10.6296 96.9319H50.8588V96.9501C50.8588 98.0868 51.7802 99.0081 52.9169 99.0081H57.1791C58.3155 99.0081 59.2371 98.0868 59.2371 96.9501V96.9319H98.1971L99.7962 99.7018C100.444 100.823 101.878 101.207 102.999 100.56L107.088 98.1991C108.209 97.5514 108.593 96.1176 107.946 94.9963Z" fill="url(#paint1_linear_14113_5783)"/>
<path d="M43.8189 4.75214L46.8798 7.81304L23.2885 31.4044L20.2276 28.3434L43.8189 4.75214Z" fill="#B3B3FF"/>
<path d="M41.1529 7.42453L43.8152 4.76226L46.8761 7.82316L44.2138 10.4854L41.1529 7.42453Z" fill="#9494FF"/>
<path d="M12.5957 40.8036L10.8376 39.0456C10.282 38.49 10.282 37.5891 10.8376 37.0335L14.3081 33.563L18.0782 37.3331L14.6077 40.8036C14.0521 41.3592 13.1513 41.3592 12.5957 40.8036Z" fill="#EBEBFF"/>
<path d="M11.3962 36.466L14.3009 33.5613L18.0704 37.3308L15.1657 40.2355L11.3962 36.466Z" fill="#D9D9FF"/>
<path d="M38.7776 20.2007L19.7014 39.2784C19.1451 39.8347 18.2445 39.8347 17.6882 39.2784L12.3629 33.953C11.8066 33.3967 11.8066 32.4961 12.3629 31.9398L13.5708 30.7334L31.4405 12.8636L38.7776 20.2007Z" fill="#EBEBFF"/>
<path d="M29.434 14.8655L31.433 12.8665L38.7698 20.2033L36.7708 22.2023L29.434 14.8655Z" fill="#D9D9FF"/>
<path d="M17.6887 39.2785L12.3628 33.9526C11.8072 33.397 11.8072 32.4961 12.3628 31.9406L17.3943 26.909L24.7323 34.247L19.7007 39.2785C19.1452 39.8341 18.2443 39.8341 17.6887 39.2785Z" fill="#FF6C6C"/>
<path d="M20.2243 35.253L16.3882 31.417C15.4212 30.45 15.4212 28.8821 16.3882 27.9152C16.9438 27.3596 17.8447 27.3596 18.4003 27.9152L23.7262 33.2411C24.2818 33.7967 24.2818 34.6976 23.7262 35.2532C22.759 36.2201 21.1912 36.2201 20.2243 35.253Z" fill="#FF4D4D"/>
<path d="M20.2217 28.352L33.3332 15.2405L36.3945 18.3018L23.283 31.4133L20.2217 28.352Z" fill="#9494FF"/>
<path d="M27.0612 21.5182V21.5239C27.0612 25.2245 25.0295 28.4498 22.0189 30.1429L20.2277 28.3517L27.0612 21.5182Z" fill="#8383FF"/>
<path d="M31.5717 17.0034L33.3346 15.2405L36.3955 18.3015L34.6327 20.0643L31.5717 17.0034Z" fill="#8383FF"/>
<path d="M25.0537 33.926C24.5699 34.4098 23.9368 34.6516 23.3023 34.6516C22.6677 34.6516 22.0346 34.4098 21.5509 33.926L17.7151 30.0903C16.7477 29.1228 16.7477 27.555 17.7151 26.5875C17.9926 26.3101 18.3568 26.1706 18.721 26.1706C19.0852 26.1706 19.4495 26.3101 19.7269 26.5875L22.7958 29.6564L25.0537 31.9143C25.6086 32.4691 25.6086 33.3712 25.0537 33.926Z" fill="#6C6CFF"/>
<path d="M22.7958 29.6564C21.6462 30.4545 20.3188 31.0122 18.8861 31.2612L17.7151 30.0903C16.7477 29.1228 16.7477 27.555 17.7151 26.5875C17.9926 26.3101 18.3568 26.1706 18.721 26.1706C19.0852 26.1706 19.4495 26.3101 19.7269 26.5875L22.7958 29.6564Z" fill="#4D4DFF"/>
<path d="M38.7776 20.2007L19.7014 39.2784C19.1451 39.8347 18.2445 39.8347 17.6882 39.2784L12.3629 33.953C11.8066 33.3967 11.8066 32.4961 12.3629 31.9398L13.5708 30.7334L31.4405 12.8636L38.7776 20.2007Z" fill="url(#paint2_linear_14113_5783)"/>
<path d="M39.6029 21.4991L30.1421 12.0383C29.6257 11.5221 29.6257 10.6851 30.1421 10.1688C30.6584 9.65248 31.4954 9.65248 32.0116 10.1688L41.4724 19.6297C41.9887 20.146 41.9887 20.983 41.4724 21.4991C40.9562 22.0155 40.1192 22.0155 39.6029 21.4991Z" fill="#EBEBFF"/>
<path d="M48.9611 11.4012L40.2402 2.68014C39.6271 2.06708 39.6271 1.073 40.2402 0.459797C40.8532 -0.153266 41.8473 -0.153266 42.4605 0.459797L51.1815 9.18069C51.7946 9.79375 51.7946 10.7878 51.1815 11.401C50.5683 12.0144 49.5743 12.0144 48.9611 11.4012Z" fill="#EBEBFF"/>
<path d="M11.2108 39.4245L0.208397 50.4268C-0.0694658 50.7045 -0.0694658 51.1549 0.208397 51.4327C0.347258 51.5717 0.529369 51.6411 0.711339 51.6411C0.893309 51.6411 1.07556 51.5717 1.21428 51.4327L12.2167 40.4304L11.2108 39.4245Z" fill="#2C27FF"/>
<defs>
<linearGradient id="paint0_linear_14113_5783" x1="30.6656" y1="113.621" x2="102.469" y2="28.0487" gradientUnits="userSpaceOnUse">
<stop stop-color="#FFF3EE" stop-opacity="0"/>
<stop offset="0.2938" stop-color="#FFEADE" stop-opacity="0.373"/>
<stop offset="0.7874" stop-color="#FFD6BB"/>
</linearGradient>
<linearGradient id="paint1_linear_14113_5783" x1="58.416" y1="100.874" x2="58.416" y2="16.3335" gradientUnits="userSpaceOnUse">
<stop stop-color="#FF4D4D" stop-opacity="0.4"/>
<stop offset="0.1463" stop-color="#FF4D4D" stop-opacity="0.342"/>
<stop offset="1" stop-color="#FF4D4D" stop-opacity="0"/>
</linearGradient>
<linearGradient id="paint2_linear_14113_5783" x1="25.3617" y1="39.6957" x2="25.3617" y2="12.8636" gradientUnits="userSpaceOnUse">
<stop stop-color="#FF4D4D" stop-opacity="0.4"/>
<stop offset="1" stop-color="#FF4D4D" stop-opacity="0"/>
</linearGradient>
</defs>
</svg>
