<svg width="217" height="167" viewBox="0 0 217 167" fill="none" xmlns="http://www.w3.org/2000/svg">
<g filter="url(#filter0_d_14113_5889)">
<rect width="108.95" height="58.2449" rx="29.1225" transform="matrix(-1 0 0 1 162.95 20)" fill="white"/>
</g>
<path d="M135.874 72.6389C138.669 76.0307 147.821 79.8913 158.951 80.6658C159.99 80.738 160.546 79.0816 159.874 78.2863C157.013 74.8998 155.452 69.2693 155.252 61.6035" stroke="#9FA0A2" stroke-width="6" stroke-linecap="round"/>
<path d="M85.5887 41.1218C86.2871 41.1218 86.8915 41.3752 87.4019 41.8819C87.9123 42.3887 88.1675 42.9886 88.1675 43.682C88.1675 44.3754 87.9123 44.9755 87.4019 45.4822L77.0871 55.723C76.5768 56.2298 75.9724 56.4831 75.2741 56.4831C74.5755 56.4831 73.9712 56.2298 73.4608 55.723L68.3035 50.6026C67.7931 50.0959 67.5379 49.4959 67.5379 48.8025C67.5379 48.109 67.7931 47.509 68.3035 47.0023C68.8139 46.4956 69.4182 46.2422 70.1166 46.2422C70.815 46.2422 71.4194 46.4956 71.9298 47.0023L75.2741 50.3226L83.7756 41.8819C84.286 41.3752 84.8903 41.1218 85.5887 41.1218Z" fill="#C51F3F" fill-opacity="0.5"/>
<rect x="100.416" y="41.4218" width="48.9952" height="4.56039" rx="2.28019" fill="#C51F3F" fill-opacity="0.5"/>
<rect x="100.416" y="52.0627" width="36.3637" height="4.56039" rx="2.28019" fill="#C51F3F" fill-opacity="0.5"/>
<defs>
<filter id="filter0_d_14113_5889" x="0" y="0" width="216.95" height="166.245" filterUnits="userSpaceOnUse" color-interpolation-filters="sRGB">
<feFlood flood-opacity="0" result="BackgroundImageFix"/>
<feColorMatrix in="SourceAlpha" type="matrix" values="0 0 0 0 0 0 0 0 0 0 0 0 0 0 0 0 0 0 127 0" result="hardAlpha"/>
<feOffset dy="34"/>
<feGaussianBlur stdDeviation="27"/>
<feColorMatrix type="matrix" values="0 0 0 0 0 0 0 0 0 0 0 0 0 0 0 0 0 0 0.12 0"/>
<feBlend mode="normal" in2="BackgroundImageFix" result="effect1_dropShadow_14113_5889"/>
<feBlend mode="normal" in="SourceGraphic" in2="effect1_dropShadow_14113_5889" result="shape"/>
</filter>
</defs>
</svg>
