<svg width="16" height="16" viewBox="0 0 16 16" fill="none" xmlns="http://www.w3.org/2000/svg">
<path d="M1.33337 6.55437C1.33337 3.67088 3.67091 1.33334 6.5544 1.33334C9.43789 1.33334 11.7754 3.67088 11.7754 6.55437C11.7754 7.77478 11.3567 8.89739 10.6551 9.78637L14.6667 13.798L13.798 14.6667L9.7864 10.655C8.89742 11.3567 7.77481 11.7754 6.5544 11.7754C3.67091 11.7754 1.33337 9.43786 1.33337 6.55437ZM6.5544 2.56182C4.34937 2.56182 2.56185 4.34934 2.56185 6.55437C2.56185 8.75939 4.34937 10.5469 6.5544 10.5469C8.75942 10.5469 10.5469 8.75939 10.5469 6.55437C10.5469 4.34934 8.75942 2.56182 6.5544 2.56182Z" fill="white"/>
</svg>
