<svg width="698" height="619" viewBox="0 0 698 619" fill="none" xmlns="http://www.w3.org/2000/svg">
<path d="M610.569 147.008C544.154 20.14 465.094 72.1901 364.405 126.698C348.302 135.416 327.595 136.523 311.256 128.256C298.234 121.668 289.325 109.295 280.481 97.6848C258.552 68.8964 233.017 42.581 202.638 22.9156C136.114 -20.1464 37.1463 -3.46388 13.1485 80.9901C-11.486 167.683 -3.58306 358.771 54.6345 475.862C85.6915 538.326 169.143 592.852 236.499 559.807C348.907 504.66 411.825 324.555 513.727 519.66C529.061 549.02 579.096 625.925 637.631 605.469C762.322 561.893 663.602 248.317 610.569 147.008Z" fill="url(#paint0_linear_14258_14529)"/>
<path d="M641.288 301.928H390.892C384.297 301.928 378.95 296.581 378.95 289.985V157.438L385.766 143.803H646.413L653.23 157.438V289.985C653.23 296.581 647.883 301.928 641.288 301.928Z" fill="white"/>
<path d="M653.229 157.438V106.668C653.229 100.072 647.882 94.7252 641.286 94.7252H390.892C384.297 94.7252 378.95 100.072 378.95 106.668V157.438H653.229Z" fill="#B2B2FF"/>
<path d="M411.831 135.568C415.596 135.568 418.648 132.516 418.648 128.751C418.648 124.987 415.596 121.935 411.831 121.935C408.067 121.935 405.015 124.987 405.015 128.751C405.015 132.516 408.067 135.568 411.831 135.568Z" fill="white"/>
<path d="M436.147 135.568C439.911 135.568 442.963 132.516 442.963 128.751C442.963 124.987 439.911 121.935 436.147 121.935C432.382 121.935 429.33 124.987 429.33 128.751C429.33 132.516 432.382 135.568 436.147 135.568Z" fill="white"/>
<path d="M460.463 135.568C464.228 135.568 467.28 132.516 467.28 128.751C467.28 124.987 464.228 121.935 460.463 121.935C456.699 121.935 453.647 124.987 453.647 128.751C453.647 132.516 456.699 135.568 460.463 135.568Z" fill="white"/>
<path d="M503.518 266.259H416.878C413.114 266.259 410.061 263.206 410.061 259.442V188.753C410.061 184.989 413.114 181.937 416.878 181.937H503.518C507.282 181.937 510.335 184.989 510.335 188.753V259.442C510.335 263.206 507.282 266.259 503.518 266.259Z" fill="#8282FF"/>
<path d="M641.288 546.067H390.892C384.297 546.067 378.95 540.72 378.95 534.125V398.85L385.766 383.853H646.413L653.23 398.85V534.125C653.23 540.72 647.883 546.067 641.288 546.067Z" fill="white"/>
<path d="M653.229 398.85V348.08C653.229 341.485 647.882 336.138 641.286 336.138H390.892C384.297 336.138 378.95 341.485 378.95 348.08V398.85H653.229Z" fill="#FF6C6C"/>
<path d="M411.831 376.98C415.596 376.98 418.648 373.929 418.648 370.164C418.648 366.399 415.596 363.348 411.831 363.348C408.067 363.348 405.015 366.399 405.015 370.164C405.015 373.929 408.067 376.98 411.831 376.98Z" fill="white"/>
<path d="M436.147 376.98C439.911 376.98 442.963 373.929 442.963 370.164C442.963 366.399 439.911 363.348 436.147 363.348C432.382 363.348 429.33 366.399 429.33 370.164C429.33 373.929 432.382 376.98 436.147 376.98Z" fill="white"/>
<path d="M460.463 376.98C464.228 376.98 467.28 373.929 467.28 370.164C467.28 366.399 464.228 363.348 460.463 363.348C456.699 363.348 453.647 366.399 453.647 370.164C453.647 373.929 456.699 376.98 460.463 376.98Z" fill="white"/>
<path d="M459.112 470.332H413.639C411.663 470.332 410.061 468.73 410.061 466.755V429.654C410.061 427.678 411.663 426.076 413.639 426.076H459.112C461.087 426.076 462.69 427.678 462.69 429.654V466.755C462.69 468.73 461.087 470.332 459.112 470.332Z" fill="#8282FF"/>
<path d="M331.647 546.067H56.7123C50.1167 546.067 44.77 540.72 44.77 534.125V77.1156L51.5864 64.8447H336.773L343.589 77.1156V534.125C343.589 540.72 338.242 546.067 331.647 546.067Z" fill="white"/>
<path d="M343.589 77.1157V26.3443C343.589 19.7488 338.242 14.402 331.647 14.402H56.7122C50.1167 14.402 44.7699 19.7488 44.7699 26.3443V77.1143H343.589V77.1157Z" fill="#FFAA66"/>
<path d="M85.8321 55.2459C89.5967 55.2459 92.6485 52.1941 92.6485 48.4295C92.6485 44.6649 89.5967 41.6131 85.8321 41.6131C82.0675 41.6131 79.0157 44.6649 79.0157 48.4295C79.0157 52.1941 82.0675 55.2459 85.8321 55.2459Z" fill="white"/>
<path d="M110.148 55.2459C113.912 55.2459 116.964 52.1941 116.964 48.4295C116.964 44.6649 113.912 41.6131 110.148 41.6131C106.383 41.6131 103.331 44.6649 103.331 48.4295C103.331 52.1941 106.383 55.2459 110.148 55.2459Z" fill="white"/>
<path d="M134.463 55.2459C138.228 55.2459 141.28 52.1941 141.28 48.4295C141.28 44.6649 138.228 41.6131 134.463 41.6131C130.699 41.6131 127.647 44.6649 127.647 48.4295C127.647 52.1941 130.699 55.2459 134.463 55.2459Z" fill="white"/>
<path d="M297.487 191.39H177.518V107.068H297.487C301.251 107.068 304.303 110.121 304.303 113.885V184.574C304.303 188.338 301.252 191.39 297.487 191.39Z" fill="#B2B2FF"/>
<path d="M177.518 191.39H90.8777C87.1137 191.39 84.0613 188.338 84.0613 184.574V113.885C84.0613 110.121 87.1137 107.068 90.8777 107.068H177.518C181.282 107.068 184.335 110.121 184.335 113.885V184.574C184.335 188.338 181.284 191.39 177.518 191.39Z" fill="#8282FF"/>
<path d="M160.076 165.598L149.227 154.749C153.753 146.11 152.392 135.167 145.14 127.916C136.211 118.988 121.684 118.988 112.754 127.916C103.826 136.844 103.826 151.374 112.754 160.302C117.219 164.765 123.082 166.998 128.947 166.998C132.608 166.998 136.267 166.128 139.588 164.389L150.437 175.238C151.769 176.568 153.512 177.234 155.257 177.234C157.002 177.234 158.746 176.568 160.078 175.238C162.737 172.577 162.737 168.261 160.076 165.598ZM122.394 150.663C118.781 147.051 118.781 141.171 122.394 137.558C124.2 135.752 126.574 134.848 128.947 134.848C131.321 134.848 133.693 135.752 135.5 137.558C139.113 141.171 139.113 147.051 135.5 150.663C131.888 154.276 126.008 154.276 122.394 150.663Z" fill="white"/>
<path d="M223.112 174.138H207.576C205.317 174.138 203.486 172.307 203.486 170.048V128.408C203.486 126.149 205.317 124.318 207.576 124.318H223.112C225.371 124.318 227.202 126.149 227.202 128.408V170.048C227.202 172.307 225.371 174.138 223.112 174.138Z" fill="#FF6C6C"/>
<path d="M226.992 518.016H161.367C153.454 518.016 147.039 511.6 147.039 503.688C147.039 495.774 153.455 489.36 161.367 489.36H226.992C234.906 489.36 241.32 495.775 241.32 503.688C241.32 511.602 234.906 518.016 226.992 518.016Z" fill="#B2B2FF"/>
<path d="M233.121 493.508C236.886 493.508 239.938 490.456 239.938 486.692C239.938 482.927 236.886 479.875 233.121 479.875C229.357 479.875 226.305 482.927 226.305 486.692C226.305 490.456 229.357 493.508 233.121 493.508Z" fill="#FF6C6C"/>
<path d="M251.996 486.692C251.996 490.456 255.048 493.508 258.812 493.508H296.89C300.654 493.508 303.707 490.456 303.707 486.692C303.707 482.928 300.654 479.875 296.89 479.875H258.812C255.048 479.875 251.996 482.928 251.996 486.692Z" fill="#9393FF"/>
<path d="M288.849 257.715H267.424C259.021 257.715 252.207 250.901 252.207 242.498V221.073C252.207 212.67 259.021 205.856 267.424 205.856H288.849C297.252 205.856 304.066 212.67 304.066 221.073V242.498C304.066 250.904 297.255 257.715 288.849 257.715Z" fill="#FF6C6C"/>
<path d="M223.304 353.09H92.9777C88.3084 353.09 84.5235 349.305 84.5235 344.636V214.31C84.5235 209.641 88.3084 205.856 92.9777 205.856H223.303C227.972 205.856 231.757 209.641 231.757 214.31V344.635C231.758 349.305 227.972 353.09 223.304 353.09Z" fill="white"/>
<path d="M231.758 235.418V214.31C231.758 209.641 227.973 205.856 223.304 205.856H92.9777C88.3084 205.856 84.5235 209.641 84.5235 214.31V235.417H231.758V235.418Z" fill="#FF6C6C"/>
<path d="M101.726 251.294V335.519H197.232C198.288 335.519 198.781 334.212 197.988 333.514L103.629 250.434C102.888 249.783 101.726 250.308 101.726 251.294Z" fill="#D9D9FF"/>
<path d="M167.041 258.601H195.111C197.446 258.601 199.339 256.708 199.339 254.374C199.339 252.04 197.446 250.147 195.111 250.147H167.041C164.707 250.147 162.814 252.04 162.814 254.374C162.814 256.708 164.706 258.601 167.041 258.601Z" fill="#8383FF"/>
<path d="M210.328 258.601C212.662 258.601 214.555 256.708 214.555 254.374C214.555 252.039 212.662 250.147 210.328 250.147C207.993 250.147 206.101 252.039 206.101 254.374C206.101 256.708 207.993 258.601 210.328 258.601Z" fill="#FF6C6C"/>
<path d="M215.622 333.814V323.089C215.622 322.792 215.5 322.506 215.282 322.295L189.319 297.213C188.865 296.775 188.128 296.775 187.674 297.213L181.416 303.259L160.091 282.65C159.637 282.212 158.901 282.212 158.447 282.65L135.899 304.432L100.658 270.397L100.66 334.935L214.461 334.938C215.102 334.938 215.622 334.434 215.622 333.814Z" fill="#FF6C6C"/>
<path d="M215.439 330.555H107.078V314.408H109.909C112.238 314.408 114.126 312.523 114.126 310.199C114.126 307.875 112.238 305.991 109.909 305.991H107.078V294.733H109.909C112.238 294.733 114.126 292.848 114.126 290.524C114.126 288.2 112.238 286.316 109.909 286.316H107.078V275.058H109.909C112.238 275.058 114.126 273.173 114.126 270.849C114.126 268.525 112.238 266.641 109.909 266.641H107.078V248.385C107.078 246.061 105.19 244.177 102.86 244.177C100.53 244.177 98.642 246.061 98.642 248.385V334.763C98.642 337.088 100.53 338.972 102.86 338.972H215.439C217.769 338.972 219.657 337.088 219.657 334.763C219.657 332.438 217.768 330.555 215.439 330.555Z" fill="#8383FF"/>
<path d="M297.484 468.243H90.875C87.111 468.243 84.0586 465.19 84.0586 461.426V400.702C84.0586 396.938 87.111 393.885 90.875 393.885H297.484C301.249 393.885 304.301 396.938 304.301 400.702V461.426C304.301 465.192 301.25 468.243 297.484 468.243Z" fill="#FF6C6C"/>
<path d="M134.706 448.216H114.55C112.291 448.216 110.46 446.385 110.46 444.126V415.34C110.46 413.081 112.291 411.251 114.55 411.251H134.706C136.965 411.251 138.796 413.081 138.796 415.34V444.126C138.796 446.385 136.965 448.216 134.706 448.216Z" fill="#FF2C2C"/>
<path d="M181.074 448.216H160.919C158.66 448.216 156.829 446.385 156.829 444.126V374.442C156.829 372.183 158.66 370.352 160.919 370.352H181.074C183.333 370.352 185.164 372.183 185.164 374.442V444.126C185.164 446.385 183.333 448.216 181.074 448.216Z" fill="#FFAA66"/>
<path d="M227.442 448.216H207.287C205.028 448.216 203.197 446.385 203.197 444.126V328.09C203.197 325.831 205.028 324.001 207.287 324.001H227.442C229.701 324.001 231.532 325.831 231.532 328.09V444.126C231.532 446.385 229.701 448.216 227.442 448.216Z" fill="#FFAA66"/>
<path d="M273.809 448.216H253.655C251.396 448.216 249.565 446.385 249.565 444.126V363.536C249.565 361.277 251.396 359.446 253.655 359.446H273.809C276.068 359.446 277.899 361.277 277.899 363.536V444.126C277.899 446.385 276.068 448.216 273.809 448.216Z" fill="#FFAA66"/>
<path d="M552.253 199.713H542.656C538.891 199.713 535.839 196.66 535.839 192.896V183.299C535.839 179.535 538.891 176.483 542.656 176.483H552.253C556.017 176.483 559.069 179.535 559.069 183.299V192.896C559.069 196.662 556.018 199.713 552.253 199.713Z" fill="#FFAA66"/>
<path d="M405.014 48.4295C401.25 48.4295 398.198 45.3771 398.198 41.6131C398.198 37.4782 394.835 34.115 390.7 34.115C386.936 34.115 383.884 31.0626 383.884 27.2986C383.884 23.5346 386.936 20.4822 390.7 20.4822C394.835 20.4822 398.198 17.119 398.198 12.9841C398.198 9.22011 401.25 6.16772 405.014 6.16772C408.778 6.16772 411.831 9.22011 411.831 12.9841C411.831 17.119 415.194 20.4822 419.329 20.4822C423.093 20.4822 426.145 23.5346 426.145 27.2986C426.145 31.0626 423.093 34.115 419.329 34.115C415.195 34.115 411.831 37.4782 411.831 41.6131C411.831 45.3771 408.78 48.4295 405.014 48.4295Z" fill="#FF6C6C"/>
<path d="M637.334 77.7071C633.57 77.7071 630.518 74.6547 630.518 70.8907C630.518 66.7559 627.155 63.3927 623.02 63.3927C619.256 63.3927 616.203 60.3403 616.203 56.5762C616.203 52.8122 619.256 49.7598 623.02 49.7598C627.155 49.7598 630.518 46.3966 630.518 42.2618C630.518 38.4978 633.57 35.4454 637.334 35.4454C641.098 35.4454 644.151 38.4978 644.151 42.2618C644.151 46.3966 647.514 49.7598 651.649 49.7598C655.413 49.7598 658.465 52.8122 658.465 56.5762C658.465 60.3403 655.413 63.3927 651.649 63.3927C647.514 63.3927 644.151 66.7559 644.151 70.8907C644.151 74.6547 641.098 77.7071 637.334 77.7071Z" fill="#FF9C33"/>
<path d="M595.311 618.727C593.566 618.727 591.822 618.062 590.49 616.731L576.176 602.417C573.514 599.754 573.514 595.438 576.176 592.777L590.49 578.463C593.153 575.801 597.468 575.801 600.13 578.463L614.445 592.777C617.107 595.44 617.107 599.756 614.445 602.417L600.13 616.731C598.8 618.06 597.056 618.727 595.311 618.727ZM590.638 597.596L595.312 602.271L599.987 597.596L595.312 592.922L590.638 597.596Z" fill="#FF6C6C"/>
<path d="M630.657 539.86H517.226C513.162 539.86 509.867 536.566 509.867 532.502V419.07C509.867 415.006 513.162 411.711 517.226 411.711H630.657C634.722 411.711 638.016 415.006 638.016 419.07V532.501C638.016 536.566 634.722 539.86 630.657 539.86Z" fill="white"/>
<path d="M638.016 437.441V419.07C638.016 415.006 634.722 411.711 630.657 411.711H517.226C513.162 411.711 509.867 415.006 509.867 419.07V437.441H638.016V437.441Z" fill="#FF9D33"/>
<path d="M524.838 451.26V524.567H607.964C608.883 524.567 609.312 523.429 608.622 522.822L526.494 450.511C525.85 449.945 524.838 450.402 524.838 451.26Z" fill="#D9D9FF"/>
<path d="M623.041 469.389V523.569C623.041 524.121 622.6 524.57 622.048 524.57H524.836L550.517 493.355C550.922 492.87 551.658 492.87 552.062 493.355L564.969 509.043L592.776 475.239C593.181 474.753 593.917 474.753 594.322 475.239L605.131 488.374L621.275 468.749C621.871 468.028 623.041 468.447 623.041 469.389Z" fill="#FFAB66"/>
<path d="M623.041 520.888H528.518V506.771H530.817C532.849 506.771 534.496 505.124 534.496 503.092C534.496 501.06 532.849 499.413 530.817 499.413H528.518V489.571H530.817C532.849 489.571 534.496 487.923 534.496 485.892C534.496 483.86 532.849 482.213 530.817 482.213H528.518V472.371H530.817C532.849 472.371 534.496 470.723 534.496 468.692C534.496 466.66 532.849 465.012 530.817 465.012H528.518V449.053C528.518 447.021 526.871 445.374 524.839 445.374C522.807 445.374 521.16 447.021 521.16 449.053V524.566C521.16 526.598 522.807 528.245 524.839 528.245H623.041C625.073 528.245 626.72 526.598 626.72 524.566C626.72 522.534 625.073 520.888 623.041 520.888Z" fill="#8383FF"/>
<path d="M581.687 457.619H606.119C608.151 457.619 609.798 455.972 609.798 453.94C609.798 451.909 608.151 450.261 606.119 450.261H581.687C579.655 450.261 578.008 451.909 578.008 453.94C578.008 455.972 579.655 457.619 581.687 457.619Z" fill="#8383FF"/>
<path d="M619.365 457.619C621.397 457.619 623.044 455.972 623.044 453.94C623.044 451.908 621.397 450.261 619.365 450.261C617.333 450.261 615.686 451.908 615.686 453.94C615.686 455.972 617.333 457.619 619.365 457.619Z" fill="#FF6C6C"/>
<path d="M641.287 94.7252H390.892C384.297 94.7252 378.95 100.072 378.95 106.668V289.985C378.95 296.581 384.297 301.928 390.892 301.928H641.287C647.883 301.928 653.23 296.581 653.23 289.985V106.668C653.228 100.072 647.883 94.7252 641.287 94.7252Z" fill="url(#paint1_linear_14258_14529)"/>
<path d="M641.287 336.138H390.892C384.297 336.138 378.95 341.485 378.95 348.08V534.125C378.95 540.72 384.297 546.067 390.892 546.067H641.287C647.883 546.067 653.23 540.72 653.23 534.125V348.079C653.228 341.485 647.883 336.138 641.287 336.138Z" fill="url(#paint2_linear_14258_14529)"/>
<path d="M331.647 14.4033H56.7122C50.1166 14.4033 44.7698 19.7501 44.7698 26.3457V534.125C44.7698 540.72 50.1166 546.067 56.7122 546.067H331.647C338.242 546.067 343.589 540.72 343.589 534.125V26.3443C343.589 19.7487 338.242 14.4033 331.647 14.4033Z" fill="url(#paint3_linear_14258_14529)"/>
<path d="M626.541 190.859H573.942C570.178 190.859 567.125 187.807 567.125 184.043C567.125 180.279 570.178 177.227 573.942 177.227H626.541C630.305 177.227 633.358 180.279 633.358 184.043C633.358 187.807 630.305 190.859 626.541 190.859Z" fill="#FF6C6C"/>
<path d="M675.619 232.277H573.942C570.178 232.277 567.125 229.225 567.125 225.461C567.125 221.697 570.178 218.645 573.942 218.645H675.619C679.383 218.645 682.436 221.697 682.436 225.461C682.436 229.225 679.383 232.277 675.619 232.277Z" fill="#9494FF"/>
<path d="M675.619 260.064H573.942C570.178 260.064 567.125 257.011 567.125 253.247C567.125 249.483 570.178 246.431 573.942 246.431H675.619C679.384 246.431 682.436 249.483 682.436 253.247C682.436 257.011 679.384 260.064 675.619 260.064Z" fill="#9494FF"/>
<path d="M675.619 287.849H573.942C570.178 287.849 567.125 284.796 567.125 281.032C567.125 277.268 570.178 274.216 573.942 274.216H675.619C679.384 274.216 682.436 277.268 682.436 281.032C682.436 284.796 679.384 287.849 675.619 287.849Z" fill="#9494FF"/>
<defs>
<linearGradient id="paint0_linear_14258_14529" x1="115.157" y1="548.458" x2="571.111" y2="92.5058" gradientUnits="userSpaceOnUse">
<stop stop-color="#FFD8D8" stop-opacity="0"/>
<stop offset="0.9981" stop-color="#FFB2B2"/>
</linearGradient>
<linearGradient id="paint1_linear_14258_14529" x1="516.089" y1="301.928" x2="516.089" y2="94.7252" gradientUnits="userSpaceOnUse">
<stop stop-color="#FF4D4D" stop-opacity="0.4"/>
<stop offset="0.1463" stop-color="#FF4D4D" stop-opacity="0.342"/>
<stop offset="1" stop-color="#FF4D4D" stop-opacity="0"/>
</linearGradient>
<linearGradient id="paint2_linear_14258_14529" x1="516.089" y1="546.067" x2="516.089" y2="336.138" gradientUnits="userSpaceOnUse">
<stop stop-color="#FF4D4D" stop-opacity="0.4"/>
<stop offset="0.1463" stop-color="#FF4D4D" stop-opacity="0.342"/>
<stop offset="1" stop-color="#FF4D4D" stop-opacity="0"/>
</linearGradient>
<linearGradient id="paint3_linear_14258_14529" x1="194.18" y1="546.067" x2="194.18" y2="14.4033" gradientUnits="userSpaceOnUse">
<stop stop-color="#FF4D4D" stop-opacity="0.4"/>
<stop offset="0.1463" stop-color="#FF4D4D" stop-opacity="0.342"/>
<stop offset="1" stop-color="#FF4D4D" stop-opacity="0"/>
</linearGradient>
</defs>
</svg>
