<svg width="22" height="16" viewBox="0 0 22 16" fill="none" xmlns="http://www.w3.org/2000/svg">
<path d="M18.5887 0.121796C19.2871 0.121796 19.8916 0.375162 20.402 0.881895C20.9123 1.38863 21.1675 1.98861 21.1675 2.68199C21.1675 3.37537 20.9123 3.97548 20.402 4.48222L10.0872 14.723C9.57678 15.2297 8.97246 15.4831 8.27409 15.4831C7.57558 15.4831 6.97126 15.2297 6.46087 14.723L1.30355 9.60261C0.793158 9.09588 0.537964 8.49589 0.537964 7.80251C0.537964 7.109 0.793158 6.50902 1.30355 6.00228C1.81393 5.49555 2.41825 5.24218 3.11663 5.24218C3.815 5.24218 4.41945 5.49555 4.92984 6.00228L8.27409 9.32258L16.7757 0.881895C17.286 0.375162 17.8904 0.121796 18.5887 0.121796Z" fill="#C51F3F" fill-opacity="0.5"/>
</svg>
